<svg width="20" height="27" viewBox="0 0 20 27" fill="none" xmlns="http://www.w3.org/2000/svg">
<path d="M17.4937 9.07589H16.2447V6.57137C16.2447 3.11512 13.4471 0.310059 9.99998 0.310059C6.5529 0.310059 3.75526 3.11512 3.75526 6.57137V9.07589H2.50631C1.13247 9.07589 0.00842285 10.2029 0.00842285 11.5804V24.103C0.00842285 25.4805 1.13247 26.6076 2.50631 26.6076H17.4937C18.8675 26.6076 19.9915 25.4805 19.9915 24.103V11.5804C19.9915 10.2029 18.8675 9.07589 17.4937 9.07589ZM9.99998 20.3462C8.62614 20.3462 7.50209 19.2192 7.50209 17.8417C7.50209 16.4642 8.62614 15.3372 9.99998 15.3372C11.3738 15.3372 12.4979 16.4642 12.4979 17.8417C12.4979 19.2192 11.3738 20.3462 9.99998 20.3462ZM13.8717 9.07589H6.12825V6.57137C6.12825 4.43 7.86429 2.68936 9.99998 2.68936C12.1357 2.68936 13.8717 4.43 13.8717 6.57137V9.07589Z" fill="#D55555"/>
</svg>
