
<svg width="21" height="26" viewBox="0 0 21 26" fill="none" xmlns="http://www.w3.org/2000/svg">
<path fill-rule="evenodd" clip-rule="evenodd" d="M10.75 1C11.1642 1 11.5 1.33579 11.5 1.75V3.28363C15.7049 3.66255 19 7.19647 19 11.5C19 14.9756 19.3707 16.9557 19.7149 18.0404C19.8863 18.5807 20.0488 18.8913 20.15 19.0517C20.2005 19.1317 20.2356 19.1742 20.249 19.1895C20.2499 19.1906 20.2508 19.1915 20.2515 19.1923C20.4757 19.3938 20.5585 19.7118 20.4575 19.9988C20.3519 20.2991 20.0683 20.5 19.75 20.5H1.75001C1.46313 20.5 1.20138 20.3364 1.07575 20.0784C0.951715 19.8238 0.981807 19.5214 1.15278 19.2963C1.15308 19.2959 1.15346 19.2954 1.15392 19.2947C1.15772 19.2893 1.16694 19.276 1.18085 19.254C1.20864 19.2101 1.25528 19.1317 1.31484 19.0137C1.43392 18.7778 1.60518 18.3827 1.78068 17.788C2.13183 16.598 2.50001 14.6087 2.50001 11.5C2.50001 7.19647 5.79513 3.66255 10 3.28363V1.75C10 1.33579 10.3358 1 10.75 1ZM2.9552 19H18.4632C18.4038 18.848 18.3441 18.6799 18.2851 18.4941C17.8793 17.2153 17.5 15.0704 17.5 11.5C17.5 7.77208 14.4779 4.75 10.75 4.75C7.02209 4.75 4.00001 7.77208 4.00001 11.5C4.00001 14.7253 3.61819 16.861 3.21934 18.2125C3.13079 18.5126 3.04141 18.774 2.9552 19ZM8.53875 22.0304C8.9362 21.9137 9.35297 22.1413 9.46964 22.5387C9.63677 23.1081 10.1591 23.4992 10.7525 23.4992C11.3459 23.4992 11.8682 23.1081 12.0354 22.5387C12.152 22.1413 12.5688 21.9137 12.9663 22.0304C13.3637 22.147 13.5913 22.5638 13.4746 22.9613C13.12 24.1693 12.0116 24.9992 10.7525 24.9992C9.49345 24.9992 8.38501 24.1693 8.03037 22.9613C7.9137 22.5638 8.14131 22.147 8.53875 22.0304Z" fill="#6366F1" stroke="#6366F1" stroke-width="0.5" stroke-linecap="round" stroke-linejoin="round"/>
</svg>
