
<svg width="25" height="26" viewBox="0 0 25 26" fill="none" xmlns="http://www.w3.org/2000/svg">
<path fill-rule="evenodd" clip-rule="evenodd" d="M12.75 1C13.1642 1 13.5 1.33579 13.5 1.75V3.28363C17.7049 3.66255 21 7.19647 21 11.5C21 14.9756 21.3707 16.9557 21.7149 18.0404C21.8863 18.5807 22.0488 18.8913 22.15 19.0517C22.2005 19.1317 22.2356 19.1742 22.249 19.1895C22.2499 19.1906 22.2508 19.1915 22.2515 19.1923C22.4757 19.3938 22.5585 19.7118 22.4575 19.9988C22.3519 20.2991 22.0683 20.5 21.75 20.5H3.75001C3.46313 20.5 3.20138 20.3364 3.07575 20.0784C2.95172 19.8238 2.98181 19.5214 3.15278 19.2963C3.15308 19.2959 3.15346 19.2954 3.15392 19.2947C3.15772 19.2893 3.16694 19.276 3.18085 19.254C3.20864 19.2101 3.25528 19.1317 3.31484 19.0137C3.43392 18.7778 3.60518 18.3827 3.78068 17.788C4.13183 16.598 4.50001 14.6087 4.50001 11.5C4.50001 7.19647 7.79513 3.66255 12 3.28363V1.75C12 1.33579 12.3358 1 12.75 1ZM4.9552 19H20.4632C20.4038 18.848 20.3441 18.6799 20.2851 18.4941C19.8793 17.2153 19.5 15.0704 19.5 11.5C19.5 7.77208 16.4779 4.75 12.75 4.75C9.02209 4.75 6.00001 7.77208 6.00001 11.5C6.00001 14.7253 5.61819 16.861 5.21934 18.2125C5.13079 18.5126 5.04141 18.774 4.9552 19ZM10.5388 22.0304C10.9362 21.9137 11.353 22.1413 11.4696 22.5387C11.6368 23.1081 12.1591 23.4992 12.7525 23.4992C13.3459 23.4992 13.8682 23.1081 14.0354 22.5387C14.152 22.1413 14.5688 21.9137 14.9663 22.0304C15.3637 22.147 15.5913 22.5638 15.4746 22.9613C15.12 24.1693 14.0116 24.9992 12.7525 24.9992C11.4934 24.9992 10.385 24.1693 10.0304 22.9613C9.9137 22.5638 10.1413 22.147 10.5388 22.0304Z" fill="#6366F1" stroke="#6366F1" stroke-width="0.5" stroke-linecap="round" stroke-linejoin="round"/>
<circle cx="19" cy="7" r="3" fill="#DC3545"/>
</svg>
