<svg width="74" height="74" viewBox="0 0 74 74" fill="none" xmlns="http://www.w3.org/2000/svg">
<path d="M37 74C57.4345 74 74 57.4345 74 37C74 16.5655 57.4345 0 37 0C16.5655 0 0 16.5655 0 37C0 57.4345 16.5655 74 37 74Z" fill="#49B393" fill-opacity="0.1"/>
<path fill-rule="evenodd" clip-rule="evenodd" d="M52.4246 22.7609C52.9131 23.2684 53.1875 23.9565 53.1875 24.6739C53.1875 25.3914 52.9131 26.0795 52.4246 26.5869L34.4949 51.239C34.0062 51.7462 33.3436 52.0312 32.6526 52.0312C31.9617 52.0312 31.2991 51.7462 30.8105 51.239L20.3877 40.4161C19.913 39.9058 19.6505 39.2223 19.6563 38.5128C19.6622 37.8035 19.9363 37.1248 20.4195 36.6232C20.9026 36.1215 21.5561 35.8369 22.2393 35.8307C22.9225 35.8246 23.5807 36.0973 24.0721 36.5901L32.6526 45.5002L48.7401 22.7609C49.2288 22.2537 49.8915 21.9688 50.5823 21.9688C51.2733 21.9688 51.936 22.2537 52.4246 22.7609Z" fill="#49B393"/>
</svg>
