<svg width="34" height="34" viewBox="0 0 34 34" fill="none" xmlns="http://www.w3.org/2000/svg">
<path fill-rule="evenodd" clip-rule="evenodd" d="M6.03961 1.00038L6.06637 1H27.425C30.4697 1 33 3.38453 33 6.40106V19.7193C32.9866 21.1957 32.363 22.5983 31.2795 23.62C30.1986 24.6393 28.7484 25.1973 27.25 25.1818H24.8909V28.6801C25.0021 29.9892 24.4433 31.2587 23.4123 32.0858C22.3725 32.9198 20.9821 33.2026 19.6916 32.8538C19.6901 32.8534 19.6887 32.853 19.6872 32.8526L5.71999 29.1977C5.70936 29.1949 5.69878 29.1919 5.68825 29.1888C2.96811 28.3742 1.06094 25.9621 1.00134 23.168L1.00091 23.1479L1.00112 6.13354C0.972571 4.78517 1.48956 3.56124 2.34863 2.64675C2.36156 2.63227 2.37491 2.61823 2.38865 2.60463C3.30731 1.64866 4.60426 1.04121 6.03961 1.00038ZM3.39784 4.34375C3.05731 4.85486 2.8682 5.46179 2.88322 6.10096L2.88374 6.12306L2.88348 23.1374C2.92886 25.0669 4.24884 26.786 6.21313 27.381L20.172 31.0338L20.1803 31.036C20.9002 31.2314 21.6698 31.0704 22.2344 30.6175C22.7962 30.1668 23.0791 29.4908 23.013 28.8142C23.01 28.7838 23.0085 28.7533 23.0085 28.7228V13.1093C22.9608 11.1644 21.6469 9.42739 19.6792 8.79787L3.39784 4.34375ZM24.8909 23.2994V13.0983L24.8906 13.0773C24.8283 10.2796 22.9415 7.85495 20.2298 6.99771C20.2181 6.99401 20.2063 6.99054 20.1945 6.9873L5.46228 2.957C5.66135 2.91463 5.86794 2.88915 6.08053 2.88235H27.425C29.4987 2.88235 31.1176 4.49134 31.1176 6.40106V19.7062C31.108 20.6572 30.7062 21.5734 29.9881 22.2505C29.2678 22.9298 28.2888 23.311 27.2658 23.2995L24.8909 23.2994Z" fill="url(#paint0_linear_3403_3564)" stroke="url(#paint1_linear_3403_3564)" stroke-width="1.3" stroke-linecap="round" stroke-linejoin="round"/>
<path fill-rule="evenodd" clip-rule="evenodd" d="M17.5783 17.7243C16.7728 17.7243 16.0579 18.3617 16.0579 19.223C16.0579 20.0843 16.7728 20.7216 17.5783 20.7216C18.3837 20.7216 19.0987 20.0843 19.0987 19.223C19.0987 18.3617 18.3837 17.7243 17.5783 17.7243Z" fill="url(#paint2_linear_3403_3564)" stroke="url(#paint3_linear_3403_3564)" stroke-width="1.3" stroke-linecap="round" stroke-linejoin="round"/>
<path fill-rule="evenodd" clip-rule="evenodd" d="M23.0078 13.0901C23.0078 12.5703 23.4292 12.1489 23.949 12.1489H32.0581C32.5779 12.1489 32.9993 12.5703 32.9993 13.0901C32.9993 13.6099 32.5779 14.0313 32.0581 14.0313H23.949C23.4292 14.0313 23.0078 13.6099 23.0078 13.0901Z" fill="url(#paint4_linear_3403_3564)" stroke="url(#paint5_linear_3403_3564)" stroke-width="1.3" stroke-linecap="round" stroke-linejoin="round"/>
<defs>
<linearGradient id="paint0_linear_3403_3564" x1="-9.98451" y1="7.6" x2="39.7349" y2="7.23743" gradientUnits="userSpaceOnUse">
<stop offset="0.0885417" stop-color="#44BCF0"/>
<stop offset="0.567708" stop-color="#818CF8"/>
<stop offset="1" stop-color="#A099FF"/>
</linearGradient>
<linearGradient id="paint1_linear_3403_3564" x1="-9.98451" y1="7.6" x2="39.7349" y2="7.23743" gradientUnits="userSpaceOnUse">
<stop offset="0.0885417" stop-color="#44BCF0"/>
<stop offset="0.567708" stop-color="#818CF8"/>
<stop offset="1" stop-color="#A099FF"/>
</linearGradient>
<linearGradient id="paint2_linear_3403_3564" x1="15.0141" y1="18.3425" x2="19.7386" y2="18.3075" gradientUnits="userSpaceOnUse">
<stop offset="0.0885417" stop-color="#44BCF0"/>
<stop offset="0.567708" stop-color="#818CF8"/>
<stop offset="1" stop-color="#A099FF"/>
</linearGradient>
<linearGradient id="paint3_linear_3403_3564" x1="15.0141" y1="18.3425" x2="19.7386" y2="18.3075" gradientUnits="userSpaceOnUse">
<stop offset="0.0885417" stop-color="#44BCF0"/>
<stop offset="0.567708" stop-color="#818CF8"/>
<stop offset="1" stop-color="#A099FF"/>
</linearGradient>
<linearGradient id="paint4_linear_3403_3564" x1="19.5781" y1="12.5372" x2="35.0798" y2="11.9371" gradientUnits="userSpaceOnUse">
<stop offset="0.0885417" stop-color="#44BCF0"/>
<stop offset="0.567708" stop-color="#818CF8"/>
<stop offset="1" stop-color="#A099FF"/>
</linearGradient>
<linearGradient id="paint5_linear_3403_3564" x1="19.5781" y1="12.5372" x2="35.0798" y2="11.9371" gradientUnits="userSpaceOnUse">
<stop offset="0.0885417" stop-color="#44BCF0"/>
<stop offset="0.567708" stop-color="#818CF8"/>
<stop offset="1" stop-color="#A099FF"/>
</linearGradient>
</defs>
</svg>
