<svg width="24" height="24" viewBox="0 0 24 24" fill="none" xmlns="http://www.w3.org/2000/svg">
<path d="M19.1401 12.9364C19.1761 12.6364 19.2001 12.3244 19.2001 12.0004C19.2001 11.6764 19.1761 11.3644 19.1281 11.0644L21.1561 9.48039C21.3361 9.33639 21.3841 9.07239 21.2761 8.86839L19.3561 5.54439C19.2361 5.32839 18.9841 5.25639 18.7681 5.32839L16.3801 6.28839C15.8761 5.90439 15.3481 5.59239 14.7601 5.35239L14.4001 2.80839C14.3641 2.56839 14.1601 2.40039 13.9201 2.40039H10.0801C9.84011 2.40039 9.64811 2.56839 9.61211 2.80839L9.25211 5.35239C8.66411 5.59239 8.12411 5.91639 7.63211 6.28839L5.24411 5.32839C5.02811 5.24439 4.77611 5.32839 4.65611 5.54439L2.73611 8.86839C2.61611 9.08439 2.66411 9.33639 2.85611 9.48039L4.88411 11.0644C4.83611 11.3644 4.80011 11.6884 4.80011 12.0004C4.80011 12.3124 4.82411 12.6364 4.87211 12.9364L2.84411 14.5204C2.66411 14.6644 2.61611 14.9284 2.72411 15.1324L4.64411 18.4564C4.76411 18.6724 5.01611 18.7444 5.23211 18.6724L7.62011 17.7124C8.12411 18.0964 8.65211 18.4084 9.24011 18.6484L9.60011 21.1924C9.64811 21.4324 9.84011 21.6004 10.0801 21.6004H13.9201C14.1601 21.6004 14.3641 21.4324 14.3881 21.1924L14.7481 18.6484C15.3361 18.4084 15.8761 18.0844 16.3681 17.7124L18.7561 18.6724C18.9721 18.7564 19.2241 18.6724 19.3441 18.4564L21.2641 15.1324C21.3841 14.9164 21.3361 14.6644 21.1441 14.5204L19.1401 12.9364ZM12.0001 15.6004C10.0201 15.6004 8.40011 13.9804 8.40011 12.0004C8.40011 10.0204 10.0201 8.40039 12.0001 8.40039C13.9801 8.40039 15.6001 10.0204 15.6001 12.0004C15.6001 13.9804 13.9801 15.6004 12.0001 15.6004Z" fill="#555770"/>
</svg>
