<svg width="22" height="22" viewBox="0 0 22 22" fill="none" xmlns="http://www.w3.org/2000/svg">
<path fill-rule="evenodd" clip-rule="evenodd" d="M9.78833 3.03176C10.0976 3.37505 10.538 3.57105 11 3.57105C11.462 3.57105 11.9024 3.37505 12.2117 3.03176L13 2.16676C13.463 1.65438 14.1983 1.48873 14.8362 1.75308C15.4742 2.01743 15.8768 2.6546 15.8417 3.34426L15.7825 4.51093C15.7594 4.97116 15.9319 5.41971 16.2575 5.74579C16.5831 6.07187 17.0314 6.24507 17.4917 6.2226L18.6583 6.16343C19.3475 6.12945 19.9837 6.53248 20.2473 7.17015C20.511 7.80783 20.3453 8.54242 19.8333 9.0051L18.965 9.78843C18.6222 10.0981 18.4265 10.5385 18.4265 11.0005C18.4265 11.4625 18.6222 11.9029 18.965 12.2126L19.8333 12.9959C20.3457 13.4589 20.5114 14.1942 20.247 14.8321C19.9827 15.4701 19.3455 15.8727 18.6558 15.8376L17.4892 15.7784C17.0279 15.7547 16.5782 15.9276 16.2516 16.2542C15.925 16.5808 15.7521 17.0305 15.7758 17.4918L15.835 18.6584C15.8656 19.3445 15.4635 19.9763 14.8292 20.2392C14.1948 20.5021 13.4637 20.3399 13 19.8334L12.2158 18.9659C11.9063 18.6231 11.466 18.4275 11.0042 18.4275C10.5423 18.4275 10.102 18.6231 9.7925 18.9659L9.005 19.8334C8.542 20.3424 7.80962 20.5064 7.17379 20.2435C6.53795 19.9807 6.13516 19.3474 6.16667 18.6601L6.22667 17.4934C6.25039 17.0322 6.07752 16.5824 5.75092 16.2558C5.42432 15.9292 4.9746 15.7564 4.51333 15.7801L3.34667 15.8393C2.65728 15.8752 2.01984 15.4735 1.7549 14.836C1.48996 14.1986 1.65486 13.4634 2.16667 13.0001L3.03417 12.2168C3.37702 11.9071 3.57268 11.4667 3.57268 11.0047C3.57268 10.5427 3.37702 10.1023 3.03417 9.7926L2.16667 9.0051C1.65657 8.54239 1.49192 7.80923 1.75519 7.17284C2.01845 6.53646 2.65293 6.13388 3.34083 6.16676L4.5075 6.22593C4.96966 6.25023 5.4204 6.07712 5.74749 5.74972C6.07458 5.42231 6.24725 4.9714 6.2225 4.50926L6.16667 3.34176C6.13441 2.65416 6.53693 2.0202 7.17295 1.7569C7.80897 1.4936 8.5418 1.65755 9.005 2.16676L9.78833 3.03176Z" stroke="#6366F1" stroke-width="1.5" stroke-linecap="round" stroke-linejoin="round"/>
<path fill-rule="evenodd" clip-rule="evenodd" d="M11 14.751C13.0711 14.751 14.75 13.072 14.75 11.001C14.75 8.92991 13.0711 7.25098 11 7.25098C8.92893 7.25098 7.25 8.92991 7.25 11.001C7.25 13.072 8.92893 14.751 11 14.751Z" stroke="#6366F1" stroke-width="1.5" stroke-linecap="round" stroke-linejoin="round"/>
</svg>
