<svg width="64" height="64" viewBox="0 0 64 64" fill="none" xmlns="http://www.w3.org/2000/svg">
<path d="M32 64C49.6731 64 64 49.6731 64 32C64 14.3269 49.6731 0 32 0C14.3269 0 0 14.3269 0 32C0 49.6731 14.3269 64 32 64Z" fill="#6366F1" fill-opacity="0.1"/>
<g clip-path="url(#clip0_3478_3609)">
<path d="M44.2578 21.0204L32.4615 16.0928C32.3152 16.0317 32.1583 16.0002 31.9999 16.0002C31.8415 16.0002 31.6847 16.0317 31.5384 16.0928L19.7422 21.0204C19.5226 21.1121 19.3349 21.2672 19.2028 21.4662C19.0707 21.6651 19.0001 21.8989 19 22.1382V28.1272C18.999 32.1577 20.1918 36.0971 22.4263 39.4425C24.6608 42.7879 27.8355 45.3877 31.5452 46.9098C31.837 47.0297 32.1639 47.0297 32.4557 46.9098C36.1651 45.3875 39.3396 42.7879 41.5738 39.4426C43.8081 36.0973 45.0009 32.1582 45 28.1279V22.1389C45 21.8995 44.9295 21.6655 44.7974 21.4664C44.6653 21.2673 44.4775 21.1121 44.2578 21.0204V21.0204ZM42.5926 28.1279C42.5931 31.5926 41.5919 34.9827 39.7111 37.8851C37.8302 40.7875 35.1508 43.0769 31.9994 44.4744C28.848 43.0769 26.1686 40.7875 24.2877 37.8851C22.4068 34.9827 21.4057 31.5926 21.4062 28.1279V22.9467L31.9994 18.5222L42.5926 22.9467V28.1279ZM30.6695 32.2096L35.8441 27.0048C35.9559 26.8923 36.0886 26.8031 36.2346 26.7423C36.3807 26.6814 36.5372 26.6501 36.6953 26.6501C36.8533 26.6501 37.0098 26.6814 37.1559 26.7423C37.3019 26.8031 37.4346 26.8923 37.5464 27.0048C37.6582 27.1172 37.7468 27.2507 37.8073 27.3976C37.8678 27.5446 37.8989 27.702 37.8989 27.861C37.8989 28.0201 37.8678 28.1775 37.8073 28.3244C37.7468 28.4714 37.6582 28.6048 37.5464 28.7173L31.5207 34.7775C31.2949 35.0045 30.9888 35.1321 30.6695 35.1321C30.3503 35.1321 30.0442 35.0045 29.8184 34.7775L26.4545 31.394C26.2288 31.1668 26.102 30.8588 26.102 30.5375C26.1021 30.2163 26.229 29.9083 26.4548 29.6812C26.6807 29.4541 26.9869 29.3265 27.3062 29.3266C27.6255 29.3267 27.9317 29.4543 28.1575 29.6815L30.6695 32.2096Z" fill="#6366F1"/>
</g>
<defs>
<clipPath id="clip0_3478_3609">
<rect width="26" height="31" fill="white" transform="translate(19 16)"/>
</clipPath>
</defs>
</svg>
