<svg width="570" height="126" viewBox="0 0 570 126" fill="none" xmlns="http://www.w3.org/2000/svg">
<path fill-rule="evenodd" clip-rule="evenodd" d="M15.1739 1.00107L15.2492 1H75.3204C83.8837 1 91 7.70648 91 16.1905V53.6482C90.9624 57.8004 89.2084 61.7453 86.1611 64.6189C83.1209 67.4856 79.0423 69.0549 74.828 69.0112H68.1931V78.8502C68.506 82.5321 66.9343 86.1026 64.0345 88.4287C61.1102 90.7746 57.1997 91.5698 53.5701 90.5887C53.566 90.5876 53.5618 90.5865 53.5577 90.5854L14.275 80.306C14.2451 80.2982 14.2153 80.2898 14.1857 80.281C6.53531 77.99 1.17139 71.2059 1.00376 63.3474L1.00256 63.291L1.00316 15.4381C0.922856 11.6458 2.37688 8.2035 4.79304 5.63147C4.82939 5.59076 4.86693 5.55126 4.90558 5.51302C7.48932 2.82435 11.137 1.1159 15.1739 1.00107ZM7.74392 10.4043C6.78618 11.8418 6.25432 13.5488 6.29655 15.3464L6.29801 15.4086L6.29728 63.2614C6.42491 68.6882 10.1374 73.5232 15.6619 75.1966L54.9213 85.4699L54.9446 85.4762C56.9692 86.0257 59.1339 85.5729 60.7218 84.2991C62.3017 83.0317 63.0973 81.1302 62.9115 79.2276C62.9032 79.142 62.899 79.0562 62.899 78.9702V35.0574C62.7649 29.5874 59.0694 24.702 53.5354 22.9315L7.74392 10.4043ZM68.1931 63.7171V35.0265L68.1924 34.9675C68.0171 27.0989 62.7104 20.2796 55.0838 17.8686C55.0509 17.8582 55.0177 17.8484 54.9844 17.8393L13.5502 6.50407C14.1101 6.3849 14.6911 6.31323 15.289 6.29412H75.3204C81.1525 6.29412 85.7059 10.8194 85.7059 16.1905V53.6112C85.6786 56.2859 84.5487 58.8627 82.529 60.7672C80.5031 62.6775 77.7497 63.7498 74.8725 63.7172L68.1931 63.7171Z" fill="url(#paint0_linear_3735_3630)" stroke="url(#paint1_linear_3735_3630)" stroke-width="1.3" stroke-linecap="round" stroke-linejoin="round"/>
<path fill-rule="evenodd" clip-rule="evenodd" d="M47.6263 48.0371C45.3611 48.0371 43.3502 49.8297 43.3502 52.2521C43.3502 54.6745 45.3611 56.4671 47.6263 56.4671C49.8916 56.4671 51.9025 54.6745 51.9025 52.2521C51.9025 49.8297 49.8916 48.0371 47.6263 48.0371Z" fill="url(#paint2_linear_3735_3630)" stroke="url(#paint3_linear_3735_3630)" stroke-width="1.3" stroke-linecap="round" stroke-linejoin="round"/>
<path fill-rule="evenodd" clip-rule="evenodd" d="M62.897 35.0033C62.897 33.5413 64.0822 32.3562 65.5441 32.3562H88.351C89.8129 32.3562 90.9981 33.5413 90.9981 35.0033C90.9981 36.4652 89.8129 37.6503 88.351 37.6503H65.5441C64.0822 37.6503 62.897 36.4652 62.897 35.0033Z" fill="url(#paint4_linear_3735_3630)" stroke="url(#paint5_linear_3735_3630)" stroke-width="1.3" stroke-linecap="round" stroke-linejoin="round"/>
<path d="M148.204 27.7834C147.92 25.2621 146.748 23.3089 144.688 21.924C142.628 20.5213 140.036 19.82 136.911 19.82C134.674 19.82 132.738 20.1751 131.105 20.8853C129.471 21.5778 128.202 22.5366 127.296 23.7617C126.409 24.9691 125.965 26.3452 125.965 27.8899C125.965 29.1861 126.266 30.3047 126.87 31.2457C127.492 32.1868 128.299 32.9769 129.294 33.6161C130.306 34.2376 131.389 34.7614 132.543 35.1875C133.697 35.5959 134.807 35.9332 135.872 36.1996L141.199 37.5845C142.939 38.0107 144.723 38.5877 146.552 39.3157C148.381 40.0437 150.077 41.0025 151.639 42.1921C153.202 43.3817 154.462 44.8555 155.421 46.6133C156.398 48.3711 156.886 50.4751 156.886 52.9254C156.886 56.0149 156.087 58.7582 154.489 61.1552C152.909 63.5522 150.61 65.4432 147.591 66.8281C144.59 68.2131 140.959 68.9055 136.698 68.9055C132.614 68.9055 129.081 68.2575 126.098 66.9613C123.115 65.6651 120.78 63.8274 119.093 61.4482C117.406 59.0511 116.474 56.2102 116.297 52.9254H124.553C124.713 54.8963 125.352 56.5387 126.471 57.8526C127.607 59.1488 129.054 60.1165 130.812 60.7557C132.587 61.3771 134.532 61.6879 136.645 61.6879C138.971 61.6879 141.039 61.3239 142.85 60.5959C144.679 59.8501 146.117 58.8203 147.165 57.5064C148.212 56.1747 148.736 54.6211 148.736 52.8455C148.736 51.2298 148.275 49.907 147.351 48.8771C146.446 47.8473 145.212 46.995 143.649 46.3203C142.105 45.6456 140.356 45.0508 138.402 44.5359L131.957 42.7781C127.589 41.5884 124.127 39.8395 121.57 37.5312C119.031 35.223 117.761 32.169 117.761 28.3693C117.761 25.2266 118.614 22.4833 120.318 20.1396C122.023 17.7958 124.331 15.9759 127.243 14.6797C130.155 13.3658 133.44 12.7088 137.097 12.7088C140.791 12.7088 144.049 13.3569 146.872 14.6531C149.713 15.9492 151.95 17.7337 153.584 20.0064C155.217 22.2614 156.069 24.8537 156.14 27.7834H148.204ZM177.987 68.9055C175.394 68.9055 173.05 68.4261 170.955 67.4673C168.86 66.4908 167.2 65.0792 165.975 63.2326C164.767 61.386 164.164 59.1222 164.164 56.4411C164.164 54.1328 164.608 52.233 165.495 50.7415C166.383 49.25 167.582 48.0692 169.091 47.1992C170.6 46.3292 172.287 45.6722 174.151 45.2283C176.016 44.7844 177.916 44.4471 179.851 44.2163C182.301 43.9322 184.29 43.7013 185.817 43.5238C187.344 43.3285 188.454 43.0178 189.146 42.5916C189.838 42.1655 190.185 41.473 190.185 40.5142V40.3278C190.185 38.0018 189.528 36.1996 188.214 34.9212C186.918 33.6428 184.982 33.0035 182.408 33.0035C179.727 33.0035 177.614 33.5984 176.069 34.788C174.542 35.9599 173.485 37.2649 172.9 38.7031L165.416 36.9986C166.303 34.5128 167.599 32.5064 169.304 30.9794C171.026 29.4347 173.006 28.316 175.243 27.6236C177.481 26.9134 179.833 26.5582 182.301 26.5582C183.935 26.5582 185.666 26.7536 187.495 27.1442C189.341 27.517 191.064 28.2095 192.662 29.2216C194.277 30.2337 195.6 31.6808 196.63 33.5629C197.66 35.4272 198.175 37.8509 198.175 40.8338V68H190.398V62.407H190.078C189.563 63.4368 188.791 64.4489 187.761 65.4432C186.731 66.4375 185.408 67.2631 183.793 67.9201C182.177 68.5771 180.242 68.9055 177.987 68.9055ZM179.718 62.5135C181.919 62.5135 183.802 62.0785 185.364 61.2085C186.944 60.3384 188.143 59.2021 188.96 57.7994C189.794 56.3789 190.211 54.8608 190.211 53.245V47.9716C189.927 48.2557 189.377 48.522 188.56 48.7706C187.761 49.0014 186.847 49.2056 185.817 49.3832C184.787 49.543 183.784 49.6939 182.807 49.8359C181.831 49.9602 181.014 50.0668 180.357 50.1555C178.812 50.3509 177.401 50.6793 176.122 51.141C174.862 51.6026 173.849 52.2685 173.086 53.1385C172.34 53.9908 171.967 55.1271 171.967 56.5476C171.967 58.5185 172.695 60.0099 174.151 61.022C175.607 62.0163 177.463 62.5135 179.718 62.5135ZM228.251 27.0909V33.483H205.133V27.0909H228.251ZM211.472 68V22.3501C211.472 19.7933 212.031 17.6715 213.149 15.9847C214.268 14.2802 215.751 13.0107 217.597 12.1761C219.444 11.3239 221.45 10.8977 223.616 10.8977C225.214 10.8977 226.582 11.0309 227.718 11.2972C228.854 11.5458 229.698 11.7766 230.248 11.9897L228.384 18.435C228.011 18.3285 227.532 18.2042 226.946 18.0621C226.36 17.9023 225.649 17.8224 224.815 17.8224C222.88 17.8224 221.495 18.3018 220.66 19.2607C219.843 20.2195 219.435 21.6044 219.435 23.4155V68H211.472ZM236.467 68V27.0909H244.431V68H236.467ZM240.489 20.7788C239.104 20.7788 237.914 20.3171 236.92 19.3938C235.943 18.4528 235.455 17.3342 235.455 16.038C235.455 14.7241 235.943 13.6055 236.92 12.6822C237.914 11.7411 239.104 11.2706 240.489 11.2706C241.874 11.2706 243.054 11.7411 244.031 12.6822C245.025 13.6055 245.523 14.7241 245.523 16.038C245.523 17.3342 245.025 18.4528 244.031 19.3938C243.054 20.3171 241.874 20.7788 240.489 20.7788ZM272.775 68.8256C268.745 68.8256 265.273 67.9645 262.362 66.2422C259.467 64.5021 257.23 62.0607 255.65 58.918C254.087 55.7575 253.306 52.0554 253.306 47.8118C253.306 43.6214 254.087 39.9283 255.65 36.7322C257.23 33.5362 259.432 31.0415 262.255 29.2482C265.096 27.4549 268.416 26.5582 272.216 26.5582C274.524 26.5582 276.761 26.94 278.928 27.7035C281.094 28.467 283.038 29.6655 284.76 31.299C286.483 32.9325 287.841 35.0543 288.835 37.6644C289.83 40.2567 290.327 43.4084 290.327 47.1193V49.9425H257.807V43.9766H282.523C282.523 41.8814 282.097 40.0259 281.245 38.4102C280.392 36.7766 279.194 35.4893 277.649 34.5483C276.122 33.6072 274.329 33.1367 272.269 33.1367C270.032 33.1367 268.079 33.6871 266.41 34.788C264.759 35.8711 263.48 37.2915 262.575 39.0494C261.687 40.7894 261.243 42.6804 261.243 44.7223V49.3832C261.243 52.1175 261.722 54.4435 262.681 56.3612C263.658 58.2788 265.016 59.7436 266.756 60.7557C268.496 61.75 270.529 62.2472 272.855 62.2472C274.364 62.2472 275.74 62.0341 276.983 61.608C278.226 61.1641 279.3 60.5071 280.206 59.6371C281.112 58.767 281.804 57.6928 282.283 56.4144L289.821 57.7727C289.217 59.9922 288.134 61.9364 286.571 63.6055C285.027 65.2567 283.082 66.544 280.739 67.4673C278.413 68.3729 275.758 68.8256 272.775 68.8256ZM307.126 43.7102V68H299.162V27.0909H306.806V33.7493H307.312C308.253 31.5831 309.727 29.843 311.733 28.5291C313.758 27.2152 316.306 26.5582 319.377 26.5582C322.165 26.5582 324.606 27.1442 326.701 28.3161C328.797 29.4702 330.421 31.1925 331.575 33.483C332.73 35.7734 333.307 38.6055 333.307 41.979V68H325.343V42.9379C325.343 39.9727 324.571 37.6555 323.026 35.9865C321.481 34.2997 319.36 33.4563 316.661 33.4563C314.814 33.4563 313.172 33.8558 311.733 34.6548C310.313 35.4538 309.186 36.6257 308.351 38.1705C307.534 39.6974 307.126 41.544 307.126 43.7102ZM363.083 27.0909V33.483H340.737V27.0909H363.083ZM346.73 17.2898H354.693V55.9883C354.693 57.533 354.924 58.696 355.386 59.4773C355.847 60.2408 356.442 60.7646 357.17 61.0487C357.916 61.315 358.724 61.4482 359.594 61.4482C360.233 61.4482 360.792 61.4038 361.272 61.315C361.751 61.2262 362.124 61.1552 362.39 61.1019L363.829 67.6804C363.367 67.858 362.71 68.0355 361.858 68.2131C361.005 68.4084 359.94 68.5149 358.662 68.5327C356.567 68.5682 354.613 68.1953 352.802 67.4141C350.991 66.6328 349.526 65.4254 348.408 63.7919C347.289 62.1584 346.73 60.1076 346.73 57.6396V17.2898Z" fill="url(#paint6_linear_3735_3630)"/>
<path d="M431.22 64L422.874 35.6364H428.58L434.138 56.4659H434.415L439.991 35.6364H445.697L451.237 56.3736H451.514L457.036 35.6364H462.741L454.413 64H448.781L443.02 43.5213H442.595L436.834 64H431.22ZM476.235 64.6278C474.438 64.6278 472.813 64.2955 471.36 63.6307C469.908 62.9536 468.757 61.9749 467.907 60.6946C467.07 59.4143 466.652 57.8447 466.652 55.9858C466.652 54.3854 466.959 53.0682 467.575 52.0341C468.19 51 469.021 50.1813 470.068 49.5781C471.114 48.9749 472.284 48.5194 473.576 48.2116C474.869 47.9039 476.186 47.67 477.528 47.5099C479.227 47.313 480.606 47.1529 481.664 47.0298C482.723 46.8944 483.493 46.679 483.973 46.3835C484.453 46.0881 484.693 45.608 484.693 44.9432V44.8139C484.693 43.2012 484.237 41.9517 483.326 41.0653C482.428 40.179 481.086 39.7358 479.301 39.7358C477.442 39.7358 475.977 40.1482 474.906 40.973C473.847 41.7855 473.115 42.6903 472.708 43.6875L467.52 42.5057C468.135 40.7822 469.034 39.3911 470.216 38.3324C471.41 37.2614 472.782 36.4858 474.333 36.0057C475.885 35.5133 477.516 35.267 479.227 35.267C480.359 35.267 481.56 35.4025 482.828 35.6733C484.108 35.9318 485.302 36.4119 486.41 37.1136C487.53 37.8153 488.448 38.8187 489.162 40.1236C489.876 41.4162 490.233 43.0966 490.233 45.1648V64H484.841V60.1222H484.619C484.262 60.8362 483.726 61.5379 483.012 62.2273C482.298 62.9167 481.381 63.4891 480.261 63.9446C479.141 64.4001 477.799 64.6278 476.235 64.6278ZM477.436 60.196C478.962 60.196 480.267 59.8944 481.35 59.2912C482.446 58.688 483.277 57.9001 483.843 56.9276C484.422 55.9427 484.711 54.8902 484.711 53.7699V50.1136C484.514 50.3106 484.133 50.4953 483.566 50.6676C483.012 50.8277 482.378 50.9692 481.664 51.0923C480.95 51.2031 480.255 51.3078 479.578 51.4062C478.901 51.4924 478.334 51.5663 477.879 51.6278C476.808 51.7633 475.829 51.991 474.943 52.3111C474.069 52.6312 473.367 53.0928 472.838 53.696C472.321 54.2869 472.062 55.0748 472.062 56.0597C472.062 57.4261 472.567 58.4602 473.576 59.1619C474.586 59.8513 475.872 60.196 477.436 60.196ZM503.108 26.1818V64H497.587V26.1818H503.108ZM516.057 26.1818V64H510.536V26.1818H516.057ZM535.71 64.5724C532.915 64.5724 530.508 63.9754 528.489 62.7812C526.483 61.5748 524.932 59.8821 523.836 57.7031C522.753 55.5118 522.211 52.9451 522.211 50.0028C522.211 47.0975 522.753 44.5369 523.836 42.321C524.932 40.1051 526.458 38.3755 528.415 37.1321C530.385 35.8887 532.687 35.267 535.322 35.267C536.922 35.267 538.473 35.5317 539.975 36.0611C541.477 36.5904 542.825 37.4214 544.019 38.554C545.213 39.6866 546.155 41.1577 546.844 42.9673C547.534 44.7647 547.879 46.9498 547.879 49.5227V51.4801H525.332V47.3438H542.468C542.468 45.8911 542.173 44.6046 541.582 43.4844C540.991 42.3518 540.16 41.4593 539.089 40.8068C538.03 40.1544 536.787 39.8281 535.359 39.8281C533.808 39.8281 532.453 40.2098 531.296 40.973C530.151 41.724 529.265 42.7088 528.637 43.9276C528.022 45.134 527.714 46.4451 527.714 47.8608V51.0923C527.714 52.9882 528.046 54.6009 528.711 55.9304C529.388 57.2599 530.33 58.2756 531.536 58.9773C532.743 59.6667 534.152 60.0114 535.765 60.0114C536.811 60.0114 537.765 59.8636 538.627 59.5682C539.489 59.2604 540.234 58.8049 540.862 58.2017C541.489 57.5985 541.969 56.8537 542.302 55.9673L547.528 56.9091C547.109 58.4479 546.358 59.7959 545.275 60.9531C544.204 62.098 542.856 62.9905 541.231 63.6307C539.618 64.2585 537.778 64.5724 535.71 64.5724ZM567.245 35.6364V40.0682H551.752V35.6364H567.245ZM555.907 28.8409H561.428V55.6719C561.428 56.7429 561.588 57.5492 561.908 58.0909C562.228 58.6203 562.641 58.9834 563.145 59.1804C563.662 59.3651 564.222 59.4574 564.826 59.4574C565.269 59.4574 565.657 59.4266 565.989 59.3651C566.321 59.3035 566.58 59.2543 566.765 59.2173L567.762 63.7784C567.442 63.9015 566.986 64.0246 566.395 64.1477C565.804 64.2831 565.066 64.357 564.179 64.3693C562.727 64.3939 561.373 64.1354 560.117 63.5938C558.861 63.0521 557.846 62.215 557.07 61.0824C556.294 59.9498 555.907 58.5279 555.907 56.8168V28.8409Z" fill="#818CF8"/>
<path d="M397 22L397 46L397 70" stroke="#818CF8" stroke-width="4"/>
<path d="M446.519 88.5069C446.519 85.2201 449.183 82.5557 452.47 82.5557H558.049C561.336 82.5557 564 85.2201 564 88.5069V119.982C564 123.269 561.336 125.933 558.049 125.933H452.47C449.183 125.933 446.519 123.269 446.519 119.982V88.5069Z" fill="url(#paint7_linear_3735_3630)"/>
<path d="M476.33 114.031H473.557L479.787 96.7184H482.805L489.035 114.031H486.262L481.368 99.8631H481.233L476.33 114.031ZM476.795 107.251H485.789V109.449H476.795V107.251Z" fill="#D7E0FE"/>
<path d="M493.86 96.7184V114.031H491.332V96.7184H493.86Z" fill="#D7E0FE"/>
<path d="M497.26 118.9V101.047H499.729V103.151H499.94C500.087 102.881 500.298 102.568 500.574 102.213C500.85 101.858 501.233 101.548 501.724 101.283C502.214 101.013 502.862 100.877 503.668 100.877C504.716 100.877 505.652 101.142 506.475 101.672C507.297 102.202 507.943 102.965 508.41 103.963C508.884 104.96 509.121 106.161 509.121 107.564C509.121 108.967 508.887 110.171 508.419 111.174C507.951 112.171 507.309 112.941 506.491 113.482C505.674 114.017 504.742 114.285 503.693 114.285C502.904 114.285 502.259 114.152 501.758 113.887C501.262 113.622 500.873 113.312 500.591 112.957C500.309 112.602 500.092 112.287 499.94 112.011H499.788V118.9H497.26ZM499.737 107.539C499.737 108.452 499.87 109.252 500.135 109.94C500.399 110.627 500.783 111.165 501.284 111.554C501.786 111.937 502.4 112.129 503.127 112.129C503.882 112.129 504.513 111.929 505.021 111.529C505.528 111.123 505.911 110.574 506.17 109.88C506.435 109.187 506.568 108.407 506.568 107.539C506.568 106.682 506.438 105.913 506.179 105.231C505.925 104.549 505.542 104.011 505.029 103.616C504.522 103.222 503.888 103.025 503.127 103.025C502.394 103.025 501.774 103.213 501.267 103.591C500.766 103.969 500.385 104.496 500.126 105.172C499.867 105.848 499.737 106.637 499.737 107.539Z" fill="#D7E0FE"/>
<path d="M514.48 106.321V114.031H511.952V96.7184H514.446V103.16H514.607C514.911 102.461 515.376 101.906 516.002 101.495C516.627 101.083 517.444 100.877 518.453 100.877C519.344 100.877 520.121 101.061 520.786 101.427C521.457 101.793 521.975 102.34 522.342 103.067C522.714 103.788 522.9 104.69 522.9 105.772V114.031H520.372V106.076C520.372 105.124 520.127 104.386 519.637 103.862C519.146 103.332 518.464 103.067 517.591 103.067C516.993 103.067 516.458 103.194 515.985 103.447C515.517 103.701 515.148 104.073 514.877 104.563C514.612 105.048 514.48 105.634 514.48 106.321Z" fill="#D7E0FE"/>
<path d="M530.051 114.318C529.228 114.318 528.485 114.166 527.82 113.862C527.155 113.552 526.628 113.104 526.239 112.518C525.856 111.932 525.664 111.213 525.664 110.362C525.664 109.63 525.805 109.027 526.087 108.553C526.368 108.08 526.749 107.705 527.228 107.429C527.707 107.153 528.242 106.944 528.834 106.803C529.426 106.662 530.029 106.555 530.643 106.482C531.421 106.392 532.052 106.319 532.537 106.262C533.021 106.2 533.373 106.102 533.593 105.966C533.813 105.831 533.923 105.611 533.923 105.307V105.248C533.923 104.51 533.714 103.938 533.297 103.532C532.886 103.126 532.272 102.923 531.454 102.923C530.604 102.923 529.933 103.112 529.443 103.49C528.958 103.862 528.623 104.276 528.437 104.732L526.061 104.191C526.343 103.402 526.754 102.765 527.295 102.281C527.842 101.79 528.47 101.435 529.181 101.216C529.891 100.99 530.637 100.877 531.421 100.877C531.939 100.877 532.489 100.939 533.069 101.063C533.655 101.182 534.202 101.402 534.709 101.723C535.222 102.044 535.642 102.503 535.969 103.101C536.295 103.692 536.459 104.462 536.459 105.409V114.031H533.991V112.256H533.889C533.726 112.583 533.48 112.904 533.154 113.219C532.827 113.535 532.407 113.797 531.894 114.006C531.381 114.214 530.767 114.318 530.051 114.318ZM530.601 112.29C531.3 112.29 531.897 112.152 532.393 111.875C532.894 111.599 533.275 111.239 533.534 110.793C533.799 110.342 533.931 109.861 533.931 109.348V107.674C533.841 107.764 533.666 107.849 533.407 107.928C533.154 108.001 532.863 108.066 532.537 108.122C532.21 108.173 531.891 108.221 531.581 108.266C531.271 108.305 531.012 108.339 530.804 108.367C530.313 108.429 529.865 108.533 529.459 108.68C529.059 108.827 528.738 109.038 528.496 109.314C528.259 109.585 528.141 109.945 528.141 110.396C528.141 111.022 528.372 111.495 528.834 111.816C529.296 112.132 529.885 112.29 530.601 112.29Z" fill="#D7E0FE"/>
<defs>
<linearGradient id="paint0_linear_3735_3630" x1="-29.8939" y1="19.5625" x2="109.942" y2="18.5428" gradientUnits="userSpaceOnUse">
<stop offset="0.0885417" stop-color="#44BCF0"/>
<stop offset="0.567708" stop-color="#818CF8"/>
<stop offset="1" stop-color="#A099FF"/>
</linearGradient>
<linearGradient id="paint1_linear_3735_3630" x1="-29.8939" y1="19.5625" x2="109.942" y2="18.5428" gradientUnits="userSpaceOnUse">
<stop offset="0.0885417" stop-color="#44BCF0"/>
<stop offset="0.567708" stop-color="#818CF8"/>
<stop offset="1" stop-color="#A099FF"/>
</linearGradient>
<linearGradient id="paint2_linear_3735_3630" x1="40.4145" y1="49.7758" x2="53.7024" y2="49.6775" gradientUnits="userSpaceOnUse">
<stop offset="0.0885417" stop-color="#44BCF0"/>
<stop offset="0.567708" stop-color="#818CF8"/>
<stop offset="1" stop-color="#A099FF"/>
</linearGradient>
<linearGradient id="paint3_linear_3735_3630" x1="40.4145" y1="49.7758" x2="53.7024" y2="49.6775" gradientUnits="userSpaceOnUse">
<stop offset="0.0885417" stop-color="#44BCF0"/>
<stop offset="0.567708" stop-color="#818CF8"/>
<stop offset="1" stop-color="#A099FF"/>
</linearGradient>
<linearGradient id="paint4_linear_3735_3630" x1="53.2509" y1="33.4481" x2="96.8494" y2="31.7605" gradientUnits="userSpaceOnUse">
<stop offset="0.0885417" stop-color="#44BCF0"/>
<stop offset="0.567708" stop-color="#818CF8"/>
<stop offset="1" stop-color="#A099FF"/>
</linearGradient>
<linearGradient id="paint5_linear_3735_3630" x1="53.2509" y1="33.4481" x2="96.8494" y2="31.7605" gradientUnits="userSpaceOnUse">
<stop offset="0.0885417" stop-color="#44BCF0"/>
<stop offset="0.567708" stop-color="#818CF8"/>
<stop offset="1" stop-color="#A099FF"/>
</linearGradient>
<linearGradient id="paint6_linear_3735_3630" x1="24.4672" y1="40.4125" x2="236.98" y2="-157.175" gradientUnits="userSpaceOnUse">
<stop offset="0.0885417" stop-color="#44BCF0"/>
<stop offset="0.567708" stop-color="#818CF8"/>
<stop offset="1" stop-color="#A099FF"/>
</linearGradient>
<linearGradient id="paint7_linear_3735_3630" x1="406.191" y1="91.5023" x2="588.664" y2="87.8985" gradientUnits="userSpaceOnUse">
<stop offset="0.0885417" stop-color="#44BCF0"/>
<stop offset="0.567708" stop-color="#818CF8"/>
<stop offset="1" stop-color="#A099FF"/>
</linearGradient>
</defs>
</svg>
