<svg width="223" height="34" viewBox="0 0 223 34" fill="none" xmlns="http://www.w3.org/2000/svg">
<path d="M54.218 11.7073C54.1142 10.7861 53.6861 10.0725 52.9336 9.5665C52.181 9.054 51.2339 8.79776 50.0921 8.79776C49.2747 8.79776 48.5676 8.9275 47.9708 9.18699C47.374 9.43999 46.9101 9.79031 46.5793 10.2379C46.2549 10.6791 46.0927 11.1818 46.0927 11.7462C46.0927 12.2198 46.203 12.6285 46.4236 12.9723C46.6506 13.3161 46.9458 13.6048 47.3091 13.8384C47.6789 14.0654 48.0746 14.2568 48.4963 14.4125C48.9179 14.5617 49.3234 14.6849 49.7126 14.7823L51.6588 15.2883C52.2946 15.444 52.9465 15.6548 53.6147 15.9208C54.2829 16.1867 54.9024 16.5371 55.4733 16.9717C56.0442 17.4064 56.5048 17.9448 56.8551 18.587C57.2119 19.2293 57.3903 19.998 57.3903 20.8933C57.3903 22.022 57.0984 23.0243 56.5145 23.9001C55.9372 24.7759 55.0971 25.4668 53.9942 25.9728C52.8979 26.4788 51.5712 26.7318 50.0143 26.7318C48.5222 26.7318 47.2313 26.495 46.1414 26.0214C45.0515 25.5479 44.1985 24.8764 43.5822 24.0071C42.9659 23.1314 42.6253 22.0934 42.5604 20.8933H45.577C45.6354 21.6133 45.8689 22.2134 46.2776 22.6935C46.6928 23.167 47.2215 23.5206 47.8638 23.7541C48.5125 23.9812 49.2228 24.0947 49.9948 24.0947C50.8447 24.0947 51.6004 23.9617 52.2621 23.6958C52.9303 23.4233 53.4558 23.047 53.8385 22.567C54.2213 22.0804 54.4127 21.5128 54.4127 20.8641C54.4127 20.2737 54.244 19.7904 53.9066 19.4142C53.5758 19.0379 53.1249 18.7265 52.5541 18.48C51.9897 18.2335 51.3507 18.0162 50.6371 17.828L48.2822 17.1858C46.6863 16.7511 45.4213 16.1121 44.4871 15.2688C43.5595 14.4255 43.0956 13.3096 43.0956 11.9214C43.0956 10.7731 43.407 9.77084 44.0298 8.91453C44.6526 8.05821 45.4959 7.39326 46.5598 6.91969C47.6237 6.43964 48.8239 6.19961 50.1603 6.19961C51.5096 6.19961 52.7 6.43639 53.7315 6.90996C54.7695 7.38353 55.5868 8.0355 56.1837 8.86587C56.7805 9.68975 57.0919 10.6369 57.1178 11.7073H54.218ZM65.0996 26.7318C64.1525 26.7318 63.2961 26.5566 62.5307 26.2063C61.7652 25.8495 61.1586 25.3338 60.711 24.6591C60.2698 23.9844 60.0493 23.1573 60.0493 22.1777C60.0493 21.3344 60.2115 20.6403 60.5358 20.0953C60.8602 19.5504 61.2981 19.119 61.8495 18.8011C62.4009 18.4832 63.0172 18.2432 63.6984 18.081C64.3795 17.9188 65.0737 17.7956 65.7808 17.7113C66.676 17.6075 67.4026 17.5231 67.9605 17.4582C68.5184 17.3869 68.9238 17.2734 69.1769 17.1177C69.4299 16.962 69.5564 16.709 69.5564 16.3587V16.2905C69.5564 15.4407 69.3163 14.7823 68.8363 14.3152C68.3627 13.8481 67.6556 13.6145 66.7149 13.6145C65.7354 13.6145 64.9634 13.8319 64.399 14.2665C63.8411 14.6947 63.4551 15.1715 63.241 15.697L60.5066 15.0742C60.831 14.166 61.3046 13.4329 61.9273 12.875C62.5566 12.3106 63.2799 11.9019 64.0973 11.6489C64.9147 11.3894 65.7743 11.2597 66.676 11.2597C67.2728 11.2597 67.9053 11.331 68.5735 11.4738C69.2482 11.61 69.8775 11.863 70.4613 12.2328C71.0517 12.6025 71.535 13.1312 71.9112 13.8189C72.2875 14.5001 72.4756 15.3856 72.4756 16.4754V26.4009H69.6342V24.3575H69.5174C69.3293 24.7337 69.0471 25.1035 68.6708 25.4668C68.2946 25.8301 67.8113 26.1317 67.2209 26.3717C66.6306 26.6118 65.9235 26.7318 65.0996 26.7318ZM65.7321 24.3964C66.5365 24.3964 67.2242 24.2374 67.7951 23.9196C68.3724 23.6017 68.8103 23.1865 69.1087 22.674C69.4136 22.155 69.5661 21.6004 69.5661 21.01V19.0833C69.4623 19.1871 69.2612 19.2844 68.9628 19.3752C68.6708 19.4596 68.3368 19.5342 67.9605 19.599C67.5842 19.6574 67.2177 19.7126 66.8609 19.7645C66.5041 19.8099 66.2057 19.8488 65.9657 19.8812C65.4013 19.9526 64.8855 20.0726 64.4184 20.2413C63.9578 20.41 63.5881 20.6532 63.3091 20.9711C63.0367 21.2825 62.9004 21.6977 62.9004 22.2167C62.9004 22.9367 63.1664 23.4817 63.6984 23.8514C64.2303 24.2147 64.9082 24.3964 65.7321 24.3964ZM83.4642 11.4543V13.7897H75.0178V11.4543H83.4642ZM77.3338 26.4009V9.72219C77.3338 8.78802 77.5381 8.0128 77.9468 7.39651C78.3555 6.77373 78.8972 6.30989 79.5719 6.00499C80.2466 5.6936 80.9796 5.53791 81.7711 5.53791C82.3549 5.53791 82.8544 5.58656 83.2696 5.68387C83.6848 5.77469 83.9929 5.85903 84.1941 5.93687L83.5129 8.29175C83.3767 8.25282 83.2015 8.20741 82.9874 8.15552C82.7733 8.09713 82.5139 8.06794 82.2089 8.06794C81.5018 8.06794 80.9958 8.24309 80.6909 8.59341C80.3925 8.94372 80.2433 9.44973 80.2433 10.1114V26.4009H77.3338ZM86.4662 26.4009V11.4543H89.3758V26.4009H86.4662ZM87.9356 9.14807C87.4296 9.14807 86.9949 8.9794 86.6316 8.64206C86.2748 8.29824 86.0964 7.88954 86.0964 7.41597C86.0964 6.93591 86.2748 6.52721 86.6316 6.18988C86.9949 5.84605 87.4296 5.67414 87.9356 5.67414C88.4416 5.67414 88.873 5.84605 89.2298 6.18988C89.5931 6.52721 89.7747 6.93591 89.7747 7.41597C89.7747 7.88954 89.5931 8.29824 89.2298 8.64206C88.873 8.9794 88.4416 9.14807 87.9356 9.14807ZM99.7319 26.7026C98.2592 26.7026 96.991 26.388 95.9271 25.7587C94.8697 25.1229 94.0523 24.231 93.4749 23.0827C92.904 21.928 92.6186 20.5754 92.6186 19.0249C92.6186 17.4939 92.904 16.1446 93.4749 14.9769C94.0523 13.8092 94.8567 12.8977 95.8882 12.2425C96.9261 11.5873 98.1392 11.2597 99.5275 11.2597C100.371 11.2597 101.188 11.3991 101.98 11.6781C102.771 11.9571 103.481 12.3949 104.111 12.9918C104.74 13.5886 105.236 14.3638 105.6 15.3175C105.963 16.2646 106.145 17.4161 106.145 18.7719V19.8034H94.2631V17.6237H103.293C103.293 16.8582 103.138 16.1803 102.826 15.5899C102.515 14.9931 102.077 14.5228 101.513 14.1789C100.955 13.8351 100.299 13.6632 99.547 13.6632C98.7296 13.6632 98.016 13.8643 97.4062 14.2665C96.8029 14.6622 96.3358 15.1812 96.0049 15.8235C95.6806 16.4592 95.5184 17.1501 95.5184 17.8961V19.599C95.5184 20.5981 95.6935 21.4479 96.0438 22.1485C96.4006 22.8492 96.8969 23.3844 97.5327 23.7541C98.1684 24.1174 98.9112 24.2991 99.761 24.2991C100.312 24.2991 100.815 24.2212 101.269 24.0655C101.723 23.9033 102.116 23.6633 102.447 23.3454C102.778 23.0276 103.031 22.6351 103.206 22.168L105.96 22.6643C105.739 23.4752 105.343 24.1855 104.772 24.7953C104.208 25.3987 103.498 25.869 102.641 26.2063C101.792 26.5372 100.822 26.7026 99.7319 26.7026ZM112.282 17.5264V26.4009H109.373V11.4543H112.165V13.887H112.35C112.694 13.0956 113.233 12.4598 113.966 11.9798C114.705 11.4997 115.636 11.2597 116.758 11.2597C117.777 11.2597 118.669 11.4738 119.434 11.9019C120.2 12.3236 120.794 12.9528 121.215 13.7897C121.637 14.6266 121.848 15.6613 121.848 16.8939V26.4009H118.938V17.2442C118.938 16.1608 118.656 15.3142 118.092 14.7044C117.527 14.0881 116.752 13.78 115.766 13.78C115.091 13.78 114.491 13.9259 113.966 14.2179C113.447 14.5098 113.035 14.9379 112.73 15.5023C112.431 16.0602 112.282 16.7349 112.282 17.5264ZM132.727 11.4543V13.7897H124.563V11.4543H132.727ZM126.752 7.87332H129.662V22.0123C129.662 22.5767 129.746 23.0016 129.915 23.2871C130.083 23.566 130.301 23.7574 130.567 23.8612C130.839 23.9585 131.134 24.0071 131.452 24.0071C131.686 24.0071 131.89 23.9909 132.065 23.9585C132.24 23.926 132.377 23.9001 132.474 23.8806L132.999 26.2842C132.831 26.349 132.591 26.4139 132.279 26.4788C131.968 26.5501 131.579 26.5891 131.112 26.5956C130.346 26.6085 129.632 26.4723 128.971 26.1869C128.309 25.9014 127.774 25.4603 127.365 24.8635C126.956 24.2666 126.752 23.5174 126.752 22.6156V7.87332Z" fill="url(#paint0_linear_3391_3911)"/>
<path d="M154.175 23L151.286 13.1818H153.261L155.185 20.392H155.281L157.211 13.1818H159.186L161.104 20.3601H161.2L163.111 13.1818H165.086L162.203 23H160.254L158.259 15.9112H158.112L156.118 23H154.175ZM169.757 23.2173C169.135 23.2173 168.572 23.1023 168.07 22.8722C167.567 22.6378 167.168 22.299 166.874 21.8558C166.585 21.4126 166.44 20.8693 166.44 20.2259C166.44 19.6719 166.546 19.2159 166.759 18.858C166.972 18.5 167.26 18.2166 167.622 18.0078C167.984 17.799 168.389 17.6413 168.837 17.5348C169.284 17.4283 169.74 17.3473 170.205 17.2919C170.793 17.2237 171.27 17.1683 171.636 17.1257C172.003 17.0788 172.269 17.0043 172.435 16.902C172.602 16.7997 172.685 16.6335 172.685 16.4034V16.3587C172.685 15.8004 172.527 15.3679 172.212 15.0611C171.901 14.7543 171.436 14.6009 170.818 14.6009C170.175 14.6009 169.668 14.7436 169.297 15.0291C168.93 15.3104 168.677 15.6236 168.536 15.9688L166.74 15.5597C166.953 14.9631 167.264 14.4815 167.673 14.1151C168.087 13.7443 168.562 13.4759 169.099 13.3097C169.636 13.1392 170.2 13.054 170.793 13.054C171.185 13.054 171.6 13.1009 172.039 13.1946C172.482 13.2841 172.896 13.4503 173.279 13.6932C173.667 13.9361 173.984 14.2834 174.232 14.7351C174.479 15.1825 174.602 15.7642 174.602 16.4801V23H172.736V21.6577H172.659C172.536 21.9048 172.35 22.1477 172.103 22.3864C171.856 22.625 171.538 22.8232 171.151 22.9808C170.763 23.1385 170.298 23.2173 169.757 23.2173ZM170.173 21.6832C170.701 21.6832 171.153 21.5788 171.528 21.37C171.907 21.1612 172.195 20.8885 172.391 20.5518C172.591 20.2109 172.691 19.8466 172.691 19.4588V18.1932C172.623 18.2614 172.491 18.3253 172.295 18.3849C172.103 18.4403 171.884 18.4893 171.636 18.532C171.389 18.5703 171.148 18.6065 170.914 18.6406C170.68 18.6705 170.484 18.696 170.326 18.7173C169.955 18.7642 169.617 18.843 169.31 18.9538C169.007 19.0646 168.764 19.2244 168.581 19.4332C168.402 19.6378 168.313 19.9105 168.313 20.2514C168.313 20.7244 168.487 21.0824 168.837 21.3253C169.186 21.5639 169.631 21.6832 170.173 21.6832ZM179.059 9.90909V23H177.148V9.90909H179.059ZM183.542 9.90909V23H181.63V9.90909H183.542ZM190.344 23.1982C189.377 23.1982 188.544 22.9915 187.845 22.5781C187.15 22.1605 186.613 21.5746 186.234 20.8203C185.859 20.0618 185.672 19.1733 185.672 18.1548C185.672 17.1491 185.859 16.2628 186.234 15.4957C186.613 14.7287 187.142 14.13 187.819 13.6996C188.501 13.2692 189.298 13.054 190.21 13.054C190.764 13.054 191.301 13.1456 191.821 13.3288C192.341 13.5121 192.807 13.7997 193.221 14.1918C193.634 14.5838 193.96 15.093 194.199 15.7195C194.437 16.3416 194.557 17.098 194.557 17.9886V18.6662H186.752V17.2344H192.684C192.684 16.7315 192.582 16.2862 192.377 15.8984C192.172 15.5064 191.885 15.1974 191.514 14.9716C191.148 14.7457 190.717 14.6328 190.223 14.6328C189.686 14.6328 189.217 14.7649 188.817 15.0291C188.42 15.2891 188.113 15.63 187.896 16.0518C187.683 16.4695 187.577 16.9233 187.577 17.4134V18.532C187.577 19.1882 187.692 19.7464 187.922 20.2067C188.156 20.6669 188.482 21.0185 188.9 21.2614C189.317 21.5 189.805 21.6193 190.363 21.6193C190.726 21.6193 191.056 21.5682 191.354 21.4659C191.653 21.3594 191.91 21.2017 192.128 20.9929C192.345 20.7841 192.511 20.5263 192.626 20.2195L194.435 20.5455C194.29 21.0781 194.03 21.5447 193.655 21.9453C193.285 22.3416 192.818 22.6506 192.256 22.8722C191.697 23.0895 191.06 23.1982 190.344 23.1982ZM201.26 13.1818V14.7159H195.897V13.1818H201.26ZM197.336 10.8295H199.247V20.1172C199.247 20.4879 199.302 20.767 199.413 20.9545C199.524 21.1378 199.667 21.2635 199.841 21.3317C200.02 21.3956 200.214 21.4276 200.423 21.4276C200.576 21.4276 200.711 21.4169 200.826 21.3956C200.941 21.3743 201.03 21.3572 201.094 21.3445L201.439 22.9233C201.329 22.9659 201.171 23.0085 200.966 23.0511C200.762 23.098 200.506 23.1236 200.199 23.1278C199.696 23.1364 199.228 23.0469 198.793 22.8594C198.358 22.6719 198.007 22.3821 197.738 21.9901C197.47 21.598 197.336 21.1058 197.336 20.5135V10.8295Z" fill="#818CF8"/>
<line x1="143.75" y1="9" x2="143.75" y2="26" stroke="#818CF8" stroke-width="1.5"/>
<path fill-rule="evenodd" clip-rule="evenodd" d="M6.03961 1.00038L6.06637 1H27.425C30.4697 1 33 3.38453 33 6.40106V19.7193C32.9866 21.1957 32.363 22.5983 31.2795 23.62C30.1986 24.6393 28.7484 25.1973 27.25 25.1818H24.8909V28.6801C25.0021 29.9892 24.4433 31.2587 23.4123 32.0858C22.3725 32.9198 20.9821 33.2026 19.6916 32.8538C19.6901 32.8534 19.6887 32.853 19.6872 32.8526L5.71999 29.1977C5.70936 29.1949 5.69878 29.1919 5.68825 29.1888C2.96811 28.3742 1.06094 25.9621 1.00134 23.168L1.00091 23.1479L1.00112 6.13354C0.972571 4.78517 1.48956 3.56124 2.34863 2.64675C2.36156 2.63227 2.37491 2.61823 2.38865 2.60463C3.30731 1.64866 4.60426 1.04121 6.03961 1.00038ZM3.39784 4.34375C3.05731 4.85486 2.8682 5.46179 2.88322 6.10096L2.88374 6.12306L2.88348 23.1374C2.92886 25.0669 4.24884 26.786 6.21313 27.381L20.172 31.0338L20.1803 31.036C20.9002 31.2314 21.6698 31.0704 22.2344 30.6175C22.7962 30.1668 23.0791 29.4908 23.013 28.8142C23.01 28.7838 23.0085 28.7533 23.0085 28.7228V13.1093C22.9608 11.1644 21.6469 9.42739 19.6792 8.79787L3.39784 4.34375ZM24.8909 23.2994V13.0983L24.8906 13.0773C24.8283 10.2796 22.9415 7.85495 20.2298 6.99771C20.2181 6.99401 20.2063 6.99054 20.1945 6.9873L5.46228 2.957C5.66135 2.91463 5.86794 2.88915 6.08053 2.88235H27.425C29.4987 2.88235 31.1176 4.49134 31.1176 6.40106V19.7062C31.108 20.6572 30.7062 21.5734 29.9881 22.2505C29.2678 22.9298 28.2888 23.311 27.2658 23.2995L24.8909 23.2994Z" fill="url(#paint1_linear_3391_3911)" stroke="url(#paint2_linear_3391_3911)" stroke-width="1.3" stroke-linecap="round" stroke-linejoin="round"/>
<path fill-rule="evenodd" clip-rule="evenodd" d="M17.5783 17.7243C16.7728 17.7243 16.0579 18.3617 16.0579 19.223C16.0579 20.0843 16.7728 20.7216 17.5783 20.7216C18.3837 20.7216 19.0987 20.0843 19.0987 19.223C19.0987 18.3617 18.3837 17.7243 17.5783 17.7243Z" fill="url(#paint3_linear_3391_3911)" stroke="url(#paint4_linear_3391_3911)" stroke-width="1.3" stroke-linecap="round" stroke-linejoin="round"/>
<path fill-rule="evenodd" clip-rule="evenodd" d="M23.0078 13.0901C23.0078 12.5703 23.4292 12.1489 23.949 12.1489H32.0581C32.5779 12.1489 32.9993 12.5703 32.9993 13.0901C32.9993 13.6099 32.5779 14.0313 32.0581 14.0313H23.949C23.4292 14.0313 23.0078 13.6099 23.0078 13.0901Z" fill="url(#paint5_linear_3391_3911)" stroke="url(#paint6_linear_3391_3911)" stroke-width="1.3" stroke-linecap="round" stroke-linejoin="round"/>
<defs>
<linearGradient id="paint0_linear_3391_3911" x1="9.27599" y1="10.6169" x2="153.391" y2="5.84315" gradientUnits="userSpaceOnUse">
<stop offset="0.0885417" stop-color="#44BCF0"/>
<stop offset="0.567708" stop-color="#818CF8"/>
<stop offset="1" stop-color="#A099FF"/>
</linearGradient>
<linearGradient id="paint1_linear_3391_3911" x1="-9.98451" y1="7.6" x2="39.7349" y2="7.23743" gradientUnits="userSpaceOnUse">
<stop offset="0.0885417" stop-color="#44BCF0"/>
<stop offset="0.567708" stop-color="#818CF8"/>
<stop offset="1" stop-color="#A099FF"/>
</linearGradient>
<linearGradient id="paint2_linear_3391_3911" x1="-9.98451" y1="7.6" x2="39.7349" y2="7.23743" gradientUnits="userSpaceOnUse">
<stop offset="0.0885417" stop-color="#44BCF0"/>
<stop offset="0.567708" stop-color="#818CF8"/>
<stop offset="1" stop-color="#A099FF"/>
</linearGradient>
<linearGradient id="paint3_linear_3391_3911" x1="15.0141" y1="18.3425" x2="19.7386" y2="18.3075" gradientUnits="userSpaceOnUse">
<stop offset="0.0885417" stop-color="#44BCF0"/>
<stop offset="0.567708" stop-color="#818CF8"/>
<stop offset="1" stop-color="#A099FF"/>
</linearGradient>
<linearGradient id="paint4_linear_3391_3911" x1="15.0141" y1="18.3425" x2="19.7386" y2="18.3075" gradientUnits="userSpaceOnUse">
<stop offset="0.0885417" stop-color="#44BCF0"/>
<stop offset="0.567708" stop-color="#818CF8"/>
<stop offset="1" stop-color="#A099FF"/>
</linearGradient>
<linearGradient id="paint5_linear_3391_3911" x1="19.5781" y1="12.5372" x2="35.0798" y2="11.9371" gradientUnits="userSpaceOnUse">
<stop offset="0.0885417" stop-color="#44BCF0"/>
<stop offset="0.567708" stop-color="#818CF8"/>
<stop offset="1" stop-color="#A099FF"/>
</linearGradient>
<linearGradient id="paint6_linear_3391_3911" x1="19.5781" y1="12.5372" x2="35.0798" y2="11.9371" gradientUnits="userSpaceOnUse">
<stop offset="0.0885417" stop-color="#44BCF0"/>
<stop offset="0.567708" stop-color="#818CF8"/>
<stop offset="1" stop-color="#A099FF"/>
</linearGradient>
</defs>
</svg>
