<svg width="225" height="64" viewBox="0 0 225 64" fill="none" xmlns="http://www.w3.org/2000/svg">
<g clip-path="url(#clip0_4072_3797)">
<path d="M38.2685 26.0077C37.8681 25.6091 37.3878 25.2941 36.8571 25.0822C36.3265 24.8702 35.7566 24.7657 35.1827 24.775H24.186V20.8358C24.1784 20.4388 24.2526 20.0443 24.4041 19.6754C24.5556 19.3065 24.7815 18.9705 25.0686 18.6872C25.3556 18.4038 25.698 18.1787 26.0759 18.0251C26.4537 17.8714 26.8594 17.7923 27.2691 17.7923C27.6789 17.7923 28.0845 17.8714 28.4624 18.0251C28.8402 18.1787 29.1826 18.4038 29.4697 18.6872C29.7567 18.9705 29.9826 19.3065 30.1341 19.6754C30.2857 20.0443 30.3598 20.4388 30.3522 20.8358V22.9477H33.2916V20.8358C33.3022 20.0629 33.1543 19.2956 32.8564 18.5786C32.5584 17.8615 32.1165 17.209 31.5562 16.6588C30.9959 16.1086 30.3284 15.6718 29.5925 15.3736C28.8565 15.0754 28.0668 14.9219 27.2691 14.9219C26.4714 14.9219 25.6817 15.0754 24.9457 15.3736C24.2098 15.6718 23.5423 16.1086 22.982 16.6588C22.4217 17.209 21.9798 17.8615 21.6819 18.5786C21.384 19.2956 21.236 20.0629 21.2466 20.8358V27.6604H35.1827C35.3674 27.658 35.5507 27.691 35.7221 27.7577C35.8935 27.8243 36.0496 27.9232 36.1813 28.0487C36.3156 28.1694 36.4222 28.3163 36.4939 28.4797C36.5657 28.643 36.6011 28.8192 36.5979 28.9968V40.7817C36.5959 41.1448 36.4462 41.4925 36.1812 41.7492C35.9163 42.006 35.5574 42.1511 35.1827 42.153H19.3555C18.981 42.1506 18.6225 42.0053 18.3576 41.7487C18.0928 41.492 17.9429 41.1446 17.9404 40.7817V28.9968C17.9365 28.8185 17.9716 28.6416 18.0434 28.4774C18.1152 28.3133 18.2221 28.1658 18.357 28.0446C18.4887 27.9191 18.6447 27.8202 18.8161 27.7535C18.9875 27.6869 19.1708 27.6538 19.3555 27.6563V24.7771C18.7816 24.7677 18.2118 24.8722 17.6811 25.0842C17.1504 25.2962 16.6701 25.6111 16.2698 26.0097C15.8585 26.3975 15.5335 26.8627 15.3147 27.3768C15.0959 27.8908 14.9881 28.4428 14.9977 28.9988V40.7817C14.9875 41.3377 15.0951 41.8899 15.3139 42.404C15.5327 42.9182 15.858 43.3834 16.2698 43.7708C16.6698 44.1698 17.15 44.4851 17.6807 44.6971C18.2115 44.9092 18.7815 45.0134 19.3555 45.0034H35.1827C35.7555 45.0057 36.323 44.8981 36.8526 44.6867C37.3822 44.4754 37.8634 44.1645 38.2683 43.772C38.6733 43.3795 38.994 42.9132 39.212 42.3999C39.43 41.8867 39.5409 41.3367 39.5384 40.7817V28.9968C39.5483 28.4409 39.4408 27.889 39.2224 27.375C39.004 26.8609 38.6794 26.3956 38.2685 26.0077Z" fill="url(#paint0_linear_4072_3797)"/>
<path d="M29.1624 39.3638L28.1448 37.0269C28.4277 36.8788 28.6647 36.66 28.8309 36.3932C28.9972 36.1265 29.0868 35.8214 29.0903 35.5098C29.0788 35.049 28.8819 34.6108 28.5415 34.2888C28.2011 33.9669 27.7443 33.7866 27.2687 33.7866C26.793 33.7866 26.3362 33.9669 25.9958 34.2888C25.6554 34.6108 25.4585 35.049 25.447 35.5098C25.4505 35.8214 25.5401 36.1265 25.7064 36.3932C25.8726 36.66 26.1096 36.8788 26.3925 37.0269L25.376 39.3638H29.1624Z" fill="url(#paint1_linear_4072_3797)"/>
</g>
<path d="M56.218 27.7072C56.1142 26.786 55.6861 26.0724 54.9336 25.5664C54.181 25.0539 53.2339 24.7977 52.0921 24.7977C51.2747 24.7977 50.5676 24.9274 49.9708 25.1869C49.374 25.4399 48.9101 25.7902 48.5793 26.2379C48.2549 26.679 48.0927 27.1818 48.0927 27.7462C48.0927 28.2197 48.203 28.6284 48.4236 28.9722C48.6506 29.3161 48.9458 29.6048 49.3091 29.8383C49.6789 30.0654 50.0746 30.2567 50.4963 30.4124C50.9179 30.5616 51.3234 30.6849 51.7126 30.7822L53.6588 31.2882C54.2946 31.4439 54.9465 31.6547 55.6147 31.9207C56.2829 32.1867 56.9024 32.537 57.4733 32.9716C58.0442 33.4063 58.5048 33.9447 58.8551 34.587C59.2119 35.2292 59.3903 35.998 59.3903 36.8932C59.3903 38.022 59.0984 39.0243 58.5145 39.9C57.9372 40.7758 57.0971 41.4667 55.9942 41.9727C54.8979 42.4787 53.5712 42.7317 52.0143 42.7317C50.5222 42.7317 49.2313 42.4949 48.1414 42.0214C47.0515 41.5478 46.1985 40.8764 45.5822 40.0071C44.9659 39.1313 44.6253 38.0933 44.5604 36.8932H47.577C47.6354 37.6133 47.8689 38.2134 48.2776 38.6934C48.6928 39.167 49.2215 39.5205 49.8638 39.7541C50.5125 39.9811 51.2228 40.0947 51.9948 40.0947C52.8447 40.0947 53.6004 39.9617 54.2621 39.6957C54.9303 39.4232 55.4558 39.047 55.8385 38.5669C56.2213 38.0804 56.4127 37.5127 56.4127 36.864C56.4127 36.2737 56.244 35.7904 55.9066 35.4141C55.5758 35.0378 55.1249 34.7264 54.5541 34.4799C53.9897 34.2334 53.3507 34.0161 52.6371 33.828L50.2822 33.1857C48.6863 32.7511 47.4213 32.1121 46.4871 31.2687C45.5595 30.4254 45.0956 29.3096 45.0956 27.9213C45.0956 26.7731 45.407 25.7708 46.0298 24.9145C46.6526 24.0581 47.4959 23.3932 48.5598 22.9196C49.6237 22.4396 50.8239 22.1995 52.1603 22.1995C53.5096 22.1995 54.7 22.4363 55.7315 22.9099C56.7695 23.3835 57.5868 24.0354 58.1837 24.8658C58.7805 25.6897 59.0919 26.6368 59.1178 27.7072H56.218ZM67.0996 42.7317C66.1525 42.7317 65.2961 42.5566 64.5307 42.2063C63.7652 41.8495 63.1586 41.3337 62.711 40.659C62.2698 39.9844 62.0493 39.1572 62.0493 38.1777C62.0493 37.3343 62.2115 36.6402 62.5358 36.0953C62.8602 35.5503 63.2981 35.1189 63.8495 34.8011C64.4009 34.4832 65.0172 34.2431 65.6984 34.081C66.3795 33.9188 67.0737 33.7955 67.7808 33.7112C68.676 33.6074 69.4026 33.5231 69.9605 33.4582C70.5184 33.3868 70.9238 33.2733 71.1769 33.1176C71.4299 32.9619 71.5564 32.7089 71.5564 32.3586V32.2905C71.5564 31.4406 71.3163 30.7822 70.8363 30.3151C70.3627 29.848 69.6556 29.6145 68.7149 29.6145C67.7354 29.6145 66.9634 29.8318 66.399 30.2665C65.8411 30.6946 65.4551 31.1714 65.241 31.6969L62.5066 31.0741C62.831 30.1659 63.3046 29.4328 63.9273 28.8749C64.5566 28.3105 65.2799 27.9018 66.0973 27.6488C66.9147 27.3894 67.7743 27.2596 68.676 27.2596C69.2728 27.2596 69.9053 27.331 70.5735 27.4737C71.2482 27.6099 71.8775 27.8629 72.4613 28.2327C73.0517 28.6025 73.535 29.1312 73.9112 29.8188C74.2875 30.5 74.4756 31.3855 74.4756 32.4754V42.4009H71.6342V40.3574H71.5174C71.3293 40.7337 71.0471 41.1034 70.6708 41.4667C70.2946 41.83 69.8113 42.1317 69.2209 42.3717C68.6306 42.6117 67.9235 42.7317 67.0996 42.7317ZM67.7321 40.3963C68.5365 40.3963 69.2242 40.2374 69.7951 39.9195C70.3724 39.6016 70.8103 39.1864 71.1087 38.6739C71.4136 38.155 71.5661 37.6003 71.5661 37.01V35.0832C71.4623 35.187 71.2612 35.2844 70.9628 35.3752C70.6708 35.4595 70.3368 35.5341 69.9605 35.599C69.5842 35.6574 69.2177 35.7125 68.8609 35.7644C68.5041 35.8098 68.2057 35.8487 67.9657 35.8812C67.4013 35.9525 66.8855 36.0726 66.4184 36.2412C65.9578 36.4099 65.5881 36.6532 65.3091 36.971C65.0367 37.2824 64.9004 37.6976 64.9004 38.2166C64.9004 38.9367 65.1664 39.4816 65.6984 39.8514C66.2303 40.2147 66.9082 40.3963 67.7321 40.3963ZM85.4642 27.4542V29.7896H77.0178V27.4542H85.4642ZM79.3338 42.4009V25.7221C79.3338 24.788 79.5381 24.0127 79.9468 23.3964C80.3555 22.7737 80.8972 22.3098 81.5719 22.0049C82.2466 21.6935 82.9796 21.5378 83.7711 21.5378C84.3549 21.5378 84.8544 21.5865 85.2696 21.6838C85.6848 21.7746 85.9929 21.859 86.1941 21.9368L85.5129 24.2917C85.3767 24.2528 85.2015 24.2074 84.9874 24.1555C84.7733 24.0971 84.5139 24.0679 84.2089 24.0679C83.5018 24.0679 82.9958 24.243 82.6909 24.5933C82.3925 24.9437 82.2433 25.4497 82.2433 26.1114V42.4009H79.3338ZM88.4662 42.4009V27.4542H91.3758V42.4009H88.4662ZM89.9356 25.148C89.4296 25.148 88.9949 24.9793 88.6316 24.642C88.2748 24.2982 88.0964 23.8895 88.0964 23.4159C88.0964 22.9358 88.2748 22.5272 88.6316 22.1898C88.9949 21.846 89.4296 21.6741 89.9356 21.6741C90.4416 21.6741 90.873 21.846 91.2298 22.1898C91.5931 22.5272 91.7747 22.9358 91.7747 23.4159C91.7747 23.8895 91.5931 24.2982 91.2298 24.642C90.873 24.9793 90.4416 25.148 89.9356 25.148ZM101.732 42.7025C100.259 42.7025 98.991 42.3879 97.9271 41.7586C96.8697 41.1229 96.0523 40.2309 95.4749 39.0826C94.904 37.9279 94.6186 36.5753 94.6186 35.0249C94.6186 33.4939 94.904 32.1445 95.4749 30.9768C96.0523 29.8091 96.8567 28.8976 97.8882 28.2424C98.9261 27.5872 100.139 27.2596 101.528 27.2596C102.371 27.2596 103.188 27.3991 103.98 27.678C104.771 27.957 105.481 28.3949 106.111 28.9917C106.74 29.5885 107.236 30.3638 107.6 31.3174C107.963 32.2645 108.145 33.416 108.145 34.7719V35.8033H96.2631V33.6236H105.293C105.293 32.8581 105.138 32.1802 104.826 31.5899C104.515 30.993 104.077 30.5227 103.513 30.1789C102.955 29.8351 102.299 29.6631 101.547 29.6631C100.73 29.6631 100.016 29.8642 99.4062 30.2665C98.8029 30.6622 98.3358 31.1812 98.0049 31.8234C97.6806 32.4592 97.5184 33.15 97.5184 33.8961V35.599C97.5184 36.598 97.6935 37.4479 98.0438 38.1485C98.4006 38.8491 98.8969 39.3843 99.5327 39.7541C100.168 40.1174 100.911 40.299 101.761 40.299C102.312 40.299 102.815 40.2212 103.269 40.0655C103.723 39.9033 104.116 39.6633 104.447 39.3454C104.778 39.0275 105.031 38.635 105.206 38.1679L107.96 38.6642C107.739 39.4751 107.343 40.1855 106.772 40.7953C106.208 41.3986 105.498 41.8689 104.641 42.2063C103.792 42.5371 102.822 42.7025 101.732 42.7025ZM114.282 33.5263V42.4009H111.373V27.4542H114.165V29.887H114.35C114.694 29.0955 115.233 28.4598 115.966 27.9797C116.705 27.4996 117.636 27.2596 118.758 27.2596C119.777 27.2596 120.669 27.4737 121.434 27.9018C122.2 28.3235 122.794 28.9528 123.215 29.7896C123.637 30.6265 123.848 31.6612 123.848 32.8938V42.4009H120.938V33.2441C120.938 32.1607 120.656 31.3141 120.092 30.7043C119.527 30.0881 118.752 29.7799 117.766 29.7799C117.091 29.7799 116.491 29.9259 115.966 30.2178C115.447 30.5097 115.035 30.9379 114.73 31.5023C114.431 32.0602 114.282 32.7349 114.282 33.5263ZM134.727 27.4542V29.7896H126.563V27.4542H134.727ZM128.752 23.8733H131.662V38.0122C131.662 38.5766 131.746 39.0016 131.915 39.287C132.083 39.5659 132.301 39.7573 132.567 39.8611C132.839 39.9584 133.134 40.0071 133.452 40.0071C133.686 40.0071 133.89 39.9909 134.065 39.9584C134.24 39.926 134.377 39.9 134.474 39.8806L134.999 42.2841C134.831 42.349 134.591 42.4139 134.279 42.4787C133.968 42.5501 133.579 42.589 133.112 42.5955C132.346 42.6085 131.632 42.4722 130.971 42.1868C130.309 41.9014 129.774 41.4602 129.365 40.8634C128.956 40.2666 128.752 39.5173 128.752 38.6156V23.8733Z" fill="url(#paint2_linear_4072_3797)"/>
<path d="M156.175 39L153.286 29.1818H155.261L157.185 36.392H157.281L159.211 29.1818H161.186L163.104 36.3601H163.2L165.111 29.1818H167.086L164.203 39H162.254L160.259 31.9112H160.112L158.118 39H156.175ZM171.757 39.2173C171.135 39.2173 170.572 39.1023 170.07 38.8722C169.567 38.6378 169.168 38.299 168.874 37.8558C168.585 37.4126 168.44 36.8693 168.44 36.2259C168.44 35.6719 168.546 35.2159 168.759 34.858C168.972 34.5 169.26 34.2166 169.622 34.0078C169.984 33.799 170.389 33.6413 170.837 33.5348C171.284 33.4283 171.74 33.3473 172.205 33.2919C172.793 33.2237 173.27 33.1683 173.636 33.1257C174.003 33.0788 174.269 33.0043 174.435 32.902C174.602 32.7997 174.685 32.6335 174.685 32.4034V32.3587C174.685 31.8004 174.527 31.3679 174.212 31.0611C173.901 30.7543 173.436 30.6009 172.818 30.6009C172.175 30.6009 171.668 30.7436 171.297 31.0291C170.93 31.3104 170.677 31.6236 170.536 31.9688L168.74 31.5597C168.953 30.9631 169.264 30.4815 169.673 30.1151C170.087 29.7443 170.562 29.4759 171.099 29.3097C171.636 29.1392 172.2 29.054 172.793 29.054C173.185 29.054 173.6 29.1009 174.039 29.1946C174.482 29.2841 174.896 29.4503 175.279 29.6932C175.667 29.9361 175.984 30.2834 176.232 30.7351C176.479 31.1825 176.602 31.7642 176.602 32.4801V39H174.736V37.6577H174.659C174.536 37.9048 174.35 38.1477 174.103 38.3864C173.856 38.625 173.538 38.8232 173.151 38.9808C172.763 39.1385 172.298 39.2173 171.757 39.2173ZM172.173 37.6832C172.701 37.6832 173.153 37.5788 173.528 37.37C173.907 37.1612 174.195 36.8885 174.391 36.5518C174.591 36.2109 174.691 35.8466 174.691 35.4588V34.1932C174.623 34.2614 174.491 34.3253 174.295 34.3849C174.103 34.4403 173.884 34.4893 173.636 34.532C173.389 34.5703 173.148 34.6065 172.914 34.6406C172.68 34.6705 172.484 34.696 172.326 34.7173C171.955 34.7642 171.617 34.843 171.31 34.9538C171.007 35.0646 170.764 35.2244 170.581 35.4332C170.402 35.6378 170.313 35.9105 170.313 36.2514C170.313 36.7244 170.487 37.0824 170.837 37.3253C171.186 37.5639 171.631 37.6832 172.173 37.6832ZM181.059 25.9091V39H179.148V25.9091H181.059ZM185.542 25.9091V39H183.63V25.9091H185.542ZM192.344 39.1982C191.377 39.1982 190.544 38.9915 189.845 38.5781C189.15 38.1605 188.613 37.5746 188.234 36.8203C187.859 36.0618 187.672 35.1733 187.672 34.1548C187.672 33.1491 187.859 32.2628 188.234 31.4957C188.613 30.7287 189.142 30.13 189.819 29.6996C190.501 29.2692 191.298 29.054 192.21 29.054C192.764 29.054 193.301 29.1456 193.821 29.3288C194.341 29.5121 194.807 29.7997 195.221 30.1918C195.634 30.5838 195.96 31.093 196.199 31.7195C196.437 32.3416 196.557 33.098 196.557 33.9886V34.6662H188.752V33.2344H194.684C194.684 32.7315 194.582 32.2862 194.377 31.8984C194.172 31.5064 193.885 31.1974 193.514 30.9716C193.148 30.7457 192.717 30.6328 192.223 30.6328C191.686 30.6328 191.217 30.7649 190.817 31.0291C190.42 31.2891 190.113 31.63 189.896 32.0518C189.683 32.4695 189.577 32.9233 189.577 33.4134V34.532C189.577 35.1882 189.692 35.7464 189.922 36.2067C190.156 36.6669 190.482 37.0185 190.9 37.2614C191.317 37.5 191.805 37.6193 192.363 37.6193C192.726 37.6193 193.056 37.5682 193.354 37.4659C193.653 37.3594 193.91 37.2017 194.128 36.9929C194.345 36.7841 194.511 36.5263 194.626 36.2195L196.435 36.5455C196.29 37.0781 196.03 37.5447 195.655 37.9453C195.285 38.3416 194.818 38.6506 194.256 38.8722C193.697 39.0895 193.06 39.1982 192.344 39.1982ZM203.26 29.1818V30.7159H197.897V29.1818H203.26ZM199.336 26.8295H201.247V36.1172C201.247 36.4879 201.302 36.767 201.413 36.9545C201.524 37.1378 201.667 37.2635 201.841 37.3317C202.02 37.3956 202.214 37.4276 202.423 37.4276C202.576 37.4276 202.711 37.4169 202.826 37.3956C202.941 37.3743 203.03 37.3572 203.094 37.3445L203.439 38.9233C203.329 38.9659 203.171 39.0085 202.966 39.0511C202.762 39.098 202.506 39.1236 202.199 39.1278C201.696 39.1364 201.228 39.0469 200.793 38.8594C200.358 38.6719 200.007 38.3821 199.738 37.9901C199.47 37.598 199.336 37.1058 199.336 36.5135V26.8295Z" fill="#818CF8"/>
<line x1="145.75" y1="25" x2="145.75" y2="42" stroke="#818CF8" stroke-width="1.5"/>
<path d="M201.612 48H161.984C160.867 48 159.962 48.8736 159.962 49.9512V61.6585C159.962 62.7362 160.867 63.6098 161.984 63.6098H201.612C202.729 63.6098 203.634 62.7362 203.634 61.6585V49.9512C203.634 48.8736 202.729 48 201.612 48Z" fill="url(#paint3_linear_4072_3797)"/>
<path d="M166.975 59.3169H165.844L168.384 52.5054H169.615L172.155 59.3169H171.024L169.029 53.7426H168.974L166.975 59.3169ZM167.164 56.6495H170.831V57.5142H167.164V56.6495ZM173.174 59.3169V52.5054H174.239V58.4322H177.437V59.3169H173.174ZM178.652 59.3169V52.5054H181.168C181.717 52.5054 182.172 52.6018 182.532 52.7947C182.893 52.9876 183.163 53.2515 183.342 53.5863C183.521 53.9189 183.611 54.2936 183.611 54.7104C183.611 55.1295 183.52 55.5065 183.339 55.8413C183.16 56.1739 182.888 56.4377 182.525 56.6329C182.165 56.8258 181.711 56.9222 181.164 56.9222H179.434V56.0508H181.068C181.415 56.0508 181.696 55.9932 181.912 55.8779C182.128 55.7604 182.287 55.6007 182.388 55.3989C182.489 55.1972 182.539 54.9677 182.539 54.7104C182.539 54.4532 182.489 54.2249 182.388 54.0253C182.287 53.8258 182.127 53.6694 181.909 53.5563C181.693 53.4433 181.408 53.3867 181.054 53.3867H179.717V59.3169H178.652ZM184.859 59.3169V52.5054H185.924V55.4654H189.443V52.5054H190.512V59.3169H189.443V56.3468H185.924V59.3169H184.859ZM192.659 59.3169H191.528L194.068 52.5054H195.298L197.838 59.3169H196.708L194.713 53.7426H194.658L192.659 59.3169ZM192.848 56.6495H196.515V57.5142H192.848V56.6495Z" fill="#D7E0FE"/>
<defs>
<linearGradient id="paint0_linear_4072_3797" x1="6.57266" y1="21.1263" x2="44.7049" y2="20.8995" gradientUnits="userSpaceOnUse">
<stop offset="0.0885417" stop-color="#44BCF0"/>
<stop offset="0.567708" stop-color="#818CF8"/>
<stop offset="1" stop-color="#A099FF"/>
</linearGradient>
<linearGradient id="paint1_linear_4072_3797" x1="24.0762" y1="34.9369" x2="29.9595" y2="34.9078" gradientUnits="userSpaceOnUse">
<stop offset="0.0885417" stop-color="#44BCF0"/>
<stop offset="0.567708" stop-color="#818CF8"/>
<stop offset="1" stop-color="#A099FF"/>
</linearGradient>
<linearGradient id="paint2_linear_4072_3797" x1="11.276" y1="26.6168" x2="155.391" y2="21.8431" gradientUnits="userSpaceOnUse">
<stop offset="0.0885417" stop-color="#44BCF0"/>
<stop offset="0.567708" stop-color="#818CF8"/>
<stop offset="1" stop-color="#A099FF"/>
</linearGradient>
<linearGradient id="paint3_linear_4072_3797" x1="144.971" y1="51.2195" x2="212.801" y2="49.8356" gradientUnits="userSpaceOnUse">
<stop offset="0.0885417" stop-color="#44BCF0"/>
<stop offset="0.567708" stop-color="#818CF8"/>
<stop offset="1" stop-color="#A099FF"/>
</linearGradient>
<clipPath id="clip0_4072_3797">
<rect width="24.5385" height="30" fill="white" transform="translate(15 15)"/>
</clipPath>
</defs>
</svg>
