<svg width="210" height="30" viewBox="0 0 210 30" fill="none" xmlns="http://www.w3.org/2000/svg">
<g clip-path="url(#clip0_3172_32144)">
<path d="M23.2683 11.0078C22.868 10.6093 22.3877 10.2943 21.857 10.0823C21.3263 9.87035 20.7565 9.76584 20.1826 9.77522H9.18591V5.83596C9.17831 5.43896 9.25244 5.04448 9.40397 4.67557C9.5555 4.30665 9.78139 3.9707 10.0684 3.68734C10.3555 3.40398 10.6979 3.17891 11.0758 3.02526C11.4536 2.87161 11.8592 2.79247 12.269 2.79247C12.6787 2.79247 13.0844 2.87161 13.4622 3.02526C13.8401 3.17891 14.1825 3.40398 14.4696 3.68734C14.7566 3.9707 14.9825 4.30665 15.134 4.67557C15.2855 5.04448 15.3597 5.43896 15.3521 5.83596V7.94785H18.2915V5.83596C18.3021 5.06305 18.1541 4.29581 17.8562 3.57877C17.5583 2.86173 17.1164 2.20917 16.5561 1.65899C15.9958 1.1088 15.3283 0.671941 14.5924 0.37377C13.8564 0.0756 13.0667 -0.0779419 12.269 -0.0779419C11.4713 -0.0779419 10.6816 0.0756 9.94562 0.37377C9.20968 0.671941 8.54218 1.1088 7.98189 1.65899C7.42159 2.20917 6.97966 2.86173 6.68175 3.57877C6.38384 4.29581 6.23588 5.06305 6.24646 5.83596V12.6606H20.1826C20.3673 12.6581 20.5506 12.6912 20.722 12.7578C20.8934 12.8245 21.0495 12.9234 21.1811 13.0489C21.3155 13.1696 21.422 13.3165 21.4938 13.4798C21.5656 13.6432 21.601 13.8194 21.5977 13.997V25.7819C21.5958 26.145 21.4461 26.4927 21.1811 26.7494C20.9161 27.0062 20.5573 27.1513 20.1826 27.1532H4.35538C3.98083 27.1507 3.62234 27.0055 3.35749 26.7488C3.09264 26.4922 2.94274 26.1448 2.94024 25.7819V13.997C2.93637 13.8187 2.97149 13.6417 3.04329 13.4776C3.11509 13.3135 3.22195 13.166 3.35683 13.0448C3.48853 12.9193 3.64459 12.8204 3.81599 12.7537C3.98738 12.6871 4.17071 12.654 4.35538 12.6565V12.6565V9.77727C3.78147 9.76789 3.21165 9.87241 2.68098 10.0844C2.15031 10.2964 1.67001 10.6113 1.26964 11.0099C0.858369 11.3977 0.533347 11.8629 0.314586 12.377C0.0958255 12.891 -0.0120453 13.443 -0.00238577 13.999V25.7819C-0.0126108 26.3379 0.0950017 26.8901 0.313796 27.4042C0.53259 27.9184 0.857913 28.3835 1.26964 28.771C1.66963 29.17 2.14985 29.4853 2.68061 29.6973C3.21137 29.9093 3.78138 30.0136 4.35538 30.0036H20.1826C20.7554 30.0059 21.3229 29.8983 21.8525 29.6869C22.3821 29.4756 22.8633 29.1647 23.2682 28.7722C23.6732 28.3797 23.9939 27.9133 24.2119 27.4001C24.4298 26.8869 24.5408 26.3369 24.5382 25.7819V13.997C24.5482 13.4411 24.4406 12.8892 24.2223 12.3752C24.0039 11.8611 23.6792 11.3958 23.2683 11.0078V11.0078Z" fill="url(#paint0_linear_3172_32144)"/>
<path d="M14.1623 24.3638L13.1446 22.027C13.4276 21.8789 13.6645 21.6601 13.8308 21.3933C13.9971 21.1265 14.0866 20.8215 14.0902 20.5098C14.0787 20.049 13.8818 19.6109 13.5414 19.2889C13.201 18.9669 12.7442 18.7867 12.2685 18.7867C11.7929 18.7867 11.3361 18.9669 10.9957 19.2889C10.6553 19.6109 10.4583 20.049 10.4469 20.5098C10.4504 20.8215 10.54 21.1265 10.7062 21.3933C10.8725 21.6601 11.1094 21.8789 11.3924 22.027L10.3759 24.3638H14.1623Z" fill="url(#paint1_linear_3172_32144)"/>
</g>
<path d="M41.218 12.7073C41.1142 11.7861 40.6861 11.0725 39.9336 10.5665C39.181 10.054 38.2339 9.79776 37.0921 9.79776C36.2747 9.79776 35.5676 9.9275 34.9708 10.187C34.374 10.44 33.9101 10.7903 33.5793 11.2379C33.2549 11.6791 33.0927 12.1818 33.0927 12.7462C33.0927 13.2198 33.203 13.6285 33.4236 13.9723C33.6506 14.3161 33.9458 14.6048 34.3091 14.8384C34.6789 15.0654 35.0746 15.2568 35.4963 15.4125C35.9179 15.5617 36.3234 15.6849 36.7126 15.7823L38.6588 16.2883C39.2946 16.444 39.9465 16.6548 40.6147 16.9208C41.2829 17.1867 41.9024 17.5371 42.4733 17.9717C43.0442 18.4064 43.5048 18.9448 43.8551 19.587C44.2119 20.2293 44.3903 20.998 44.3903 21.8933C44.3903 23.022 44.0984 24.0243 43.5145 24.9001C42.9372 25.7759 42.0971 26.4668 40.9942 26.9728C39.8979 27.4788 38.5712 27.7318 37.0143 27.7318C35.5222 27.7318 34.2313 27.495 33.1414 27.0214C32.0515 26.5479 31.1985 25.8764 30.5822 25.0071C29.9659 24.1314 29.6253 23.0934 29.5604 21.8933H32.577C32.6354 22.6133 32.8689 23.2134 33.2776 23.6935C33.6928 24.167 34.2215 24.5206 34.8638 24.7541C35.5125 24.9812 36.2228 25.0947 36.9948 25.0947C37.8447 25.0947 38.6004 24.9617 39.2621 24.6958C39.9303 24.4233 40.4558 24.047 40.8385 23.567C41.2213 23.0804 41.4127 22.5128 41.4127 21.8641C41.4127 21.2737 41.244 20.7904 40.9066 20.4142C40.5758 20.0379 40.1249 19.7265 39.5541 19.48C38.9897 19.2335 38.3507 19.0162 37.6371 18.828L35.2822 18.1858C33.6863 17.7511 32.4213 17.1121 31.4871 16.2688C30.5595 15.4255 30.0956 14.3096 30.0956 12.9214C30.0956 11.7731 30.407 10.7708 31.0298 9.91453C31.6526 9.05821 32.4959 8.39326 33.5598 7.91969C34.6237 7.43964 35.8239 7.19961 37.1603 7.19961C38.5096 7.19961 39.7 7.43639 40.7315 7.90996C41.7695 8.38353 42.5868 9.0355 43.1837 9.86587C43.7805 10.6898 44.0919 11.6369 44.1178 12.7073H41.218ZM52.0996 27.7318C51.1525 27.7318 50.2961 27.5566 49.5307 27.2063C48.7652 26.8495 48.1586 26.3338 47.711 25.6591C47.2698 24.9844 47.0493 24.1573 47.0493 23.1777C47.0493 22.3344 47.2115 21.6403 47.5358 21.0953C47.8602 20.5504 48.2981 20.119 48.8495 19.8011C49.4009 19.4832 50.0172 19.2432 50.6984 19.081C51.3795 18.9188 52.0737 18.7956 52.7808 18.7113C53.676 18.6075 54.4026 18.5231 54.9605 18.4582C55.5184 18.3869 55.9238 18.2734 56.1769 18.1177C56.4299 17.962 56.5564 17.709 56.5564 17.3587V17.2905C56.5564 16.4407 56.3163 15.7823 55.8363 15.3152C55.3627 14.8481 54.6556 14.6145 53.7149 14.6145C52.7354 14.6145 51.9634 14.8319 51.399 15.2665C50.8411 15.6947 50.4551 16.1715 50.241 16.697L47.5066 16.0742C47.831 15.166 48.3046 14.4329 48.9273 13.875C49.5566 13.3106 50.2799 12.9019 51.0973 12.6489C51.9147 12.3894 52.7743 12.2597 53.676 12.2597C54.2728 12.2597 54.9053 12.331 55.5735 12.4738C56.2482 12.61 56.8775 12.863 57.4613 13.2328C58.0517 13.6025 58.535 14.1312 58.9112 14.8189C59.2875 15.5001 59.4756 16.3856 59.4756 17.4754V27.4009H56.6342V25.3575H56.5174C56.3293 25.7337 56.0471 26.1035 55.6708 26.4668C55.2946 26.8301 54.8113 27.1317 54.2209 27.3717C53.6306 27.6118 52.9235 27.7318 52.0996 27.7318ZM52.7321 25.3964C53.5365 25.3964 54.2242 25.2374 54.7951 24.9196C55.3724 24.6017 55.8103 24.1865 56.1087 23.674C56.4136 23.155 56.5661 22.6004 56.5661 22.01V20.0833C56.4623 20.1871 56.2612 20.2844 55.9628 20.3752C55.6708 20.4596 55.3368 20.5342 54.9605 20.599C54.5842 20.6574 54.2177 20.7126 53.8609 20.7645C53.5041 20.8099 53.2057 20.8488 52.9657 20.8812C52.4013 20.9526 51.8855 21.0726 51.4184 21.2413C50.9578 21.41 50.5881 21.6532 50.3091 21.9711C50.0367 22.2825 49.9004 22.6977 49.9004 23.2167C49.9004 23.9367 50.1664 24.4817 50.6984 24.8514C51.2303 25.2147 51.9082 25.3964 52.7321 25.3964ZM70.4642 12.4543V14.7897H62.0178V12.4543H70.4642ZM64.3338 27.4009V10.7222C64.3338 9.78802 64.5381 9.0128 64.9468 8.39651C65.3555 7.77373 65.8972 7.30989 66.5719 7.00499C67.2466 6.6936 67.9796 6.53791 68.7711 6.53791C69.3549 6.53791 69.8544 6.58656 70.2696 6.68387C70.6848 6.77469 70.9929 6.85903 71.1941 6.93687L70.5129 9.29175C70.3767 9.25282 70.2015 9.20741 69.9874 9.15552C69.7733 9.09713 69.5139 9.06794 69.2089 9.06794C68.5018 9.06794 67.9958 9.24309 67.6909 9.59341C67.3925 9.94372 67.2433 10.4497 67.2433 11.1114V27.4009H64.3338ZM73.4662 27.4009V12.4543H76.3758V27.4009H73.4662ZM74.9356 10.1481C74.4296 10.1481 73.9949 9.9794 73.6316 9.64206C73.2748 9.29824 73.0964 8.88954 73.0964 8.41597C73.0964 7.93591 73.2748 7.52721 73.6316 7.18988C73.9949 6.84605 74.4296 6.67414 74.9356 6.67414C75.4416 6.67414 75.873 6.84605 76.2298 7.18988C76.5931 7.52721 76.7747 7.93591 76.7747 8.41597C76.7747 8.88954 76.5931 9.29824 76.2298 9.64206C75.873 9.9794 75.4416 10.1481 74.9356 10.1481ZM86.7319 27.7026C85.2592 27.7026 83.991 27.388 82.9271 26.7587C81.8697 26.1229 81.0523 25.231 80.4749 24.0827C79.904 22.928 79.6186 21.5754 79.6186 20.0249C79.6186 18.4939 79.904 17.1446 80.4749 15.9769C81.0523 14.8092 81.8567 13.8977 82.8882 13.2425C83.9261 12.5873 85.1392 12.2597 86.5275 12.2597C87.3709 12.2597 88.1882 12.3991 88.9797 12.6781C89.7711 12.9571 90.4815 13.3949 91.1108 13.9918C91.74 14.5886 92.2363 15.3638 92.5996 16.3175C92.9629 17.2646 93.1445 18.4161 93.1445 19.7719V20.8034H81.2631V18.6237H90.2934C90.2934 17.8582 90.1377 17.1803 89.8263 16.5899C89.5149 15.9931 89.077 15.5228 88.5126 15.1789C87.9547 14.8351 87.2995 14.6632 86.547 14.6632C85.7296 14.6632 85.016 14.8643 84.4062 15.2665C83.8029 15.6622 83.3358 16.1812 83.0049 16.8235C82.6806 17.4592 82.5184 18.1501 82.5184 18.8961V20.599C82.5184 21.5981 82.6935 22.4479 83.0438 23.1485C83.4006 23.8492 83.8969 24.3844 84.5327 24.7541C85.1684 25.1174 85.9112 25.2991 86.761 25.2991C87.3125 25.2991 87.8152 25.2212 88.2693 25.0655C88.7234 24.9033 89.1159 24.6633 89.4468 24.3454C89.7776 24.0276 90.0306 23.6351 90.2058 23.168L92.9596 23.6643C92.7391 24.4752 92.3433 25.1855 91.7725 25.7953C91.2081 26.3987 90.4977 26.869 89.6414 27.2063C88.7916 27.5372 87.8217 27.7026 86.7319 27.7026ZM99.2823 18.5264V27.4009H96.3727V12.4543H99.1655V14.887H99.3504C99.6942 14.0956 100.233 13.4598 100.966 12.9798C101.705 12.4997 102.636 12.2597 103.758 12.2597C104.777 12.2597 105.669 12.4738 106.434 12.9019C107.2 13.3236 107.794 13.9528 108.215 14.7897C108.637 15.6266 108.848 16.6613 108.848 17.8939V27.4009H105.938V18.2442C105.938 17.1608 105.656 16.3142 105.092 15.7044C104.527 15.0881 103.752 14.78 102.766 14.78C102.091 14.78 101.491 14.9259 100.966 15.2179C100.447 15.5098 100.035 15.9379 99.7299 16.5023C99.4315 17.0602 99.2823 17.7349 99.2823 18.5264ZM119.727 12.4543V14.7897H111.563V12.4543H119.727ZM113.752 8.87332H116.662V23.0123C116.662 23.5767 116.746 24.0016 116.915 24.2871C117.083 24.566 117.301 24.7574 117.567 24.8612C117.839 24.9585 118.134 25.0071 118.452 25.0071C118.686 25.0071 118.89 24.9909 119.065 24.9585C119.24 24.926 119.377 24.9001 119.474 24.8806L119.999 27.2842C119.831 27.349 119.591 27.4139 119.279 27.4788C118.968 27.5501 118.579 27.5891 118.112 27.5956C117.346 27.6085 116.632 27.4723 115.971 27.1869C115.309 26.9014 114.774 26.4603 114.365 25.8635C113.956 25.2666 113.752 24.5174 113.752 23.6156V8.87332Z" fill="url(#paint2_linear_3172_32144)"/>
<path d="M141.175 24L138.286 14.1818H140.261L142.185 21.392H142.281L144.211 14.1818H146.186L148.104 21.3601H148.2L150.111 14.1818H152.086L149.203 24H147.254L145.259 16.9112H145.112L143.118 24H141.175ZM156.757 24.2173C156.135 24.2173 155.572 24.1023 155.07 23.8722C154.567 23.6378 154.168 23.299 153.874 22.8558C153.585 22.4126 153.44 21.8693 153.44 21.2259C153.44 20.6719 153.546 20.2159 153.759 19.858C153.972 19.5 154.26 19.2166 154.622 19.0078C154.984 18.799 155.389 18.6413 155.837 18.5348C156.284 18.4283 156.74 18.3473 157.205 18.2919C157.793 18.2237 158.27 18.1683 158.636 18.1257C159.003 18.0788 159.269 18.0043 159.435 17.902C159.602 17.7997 159.685 17.6335 159.685 17.4034V17.3587C159.685 16.8004 159.527 16.3679 159.212 16.0611C158.901 15.7543 158.436 15.6009 157.818 15.6009C157.175 15.6009 156.668 15.7436 156.297 16.0291C155.93 16.3104 155.677 16.6236 155.536 16.9688L153.74 16.5597C153.953 15.9631 154.264 15.4815 154.673 15.1151C155.087 14.7443 155.562 14.4759 156.099 14.3097C156.636 14.1392 157.2 14.054 157.793 14.054C158.185 14.054 158.6 14.1009 159.039 14.1946C159.482 14.2841 159.896 14.4503 160.279 14.6932C160.667 14.9361 160.984 15.2834 161.232 15.7351C161.479 16.1825 161.602 16.7642 161.602 17.4801V24H159.736V22.6577H159.659C159.536 22.9048 159.35 23.1477 159.103 23.3864C158.856 23.625 158.538 23.8232 158.151 23.9808C157.763 24.1385 157.298 24.2173 156.757 24.2173ZM157.173 22.6832C157.701 22.6832 158.153 22.5788 158.528 22.37C158.907 22.1612 159.195 21.8885 159.391 21.5518C159.591 21.2109 159.691 20.8466 159.691 20.4588V19.1932C159.623 19.2614 159.491 19.3253 159.295 19.3849C159.103 19.4403 158.884 19.4893 158.636 19.532C158.389 19.5703 158.148 19.6065 157.914 19.6406C157.68 19.6705 157.484 19.696 157.326 19.7173C156.955 19.7642 156.617 19.843 156.31 19.9538C156.007 20.0646 155.764 20.2244 155.581 20.4332C155.402 20.6378 155.313 20.9105 155.313 21.2514C155.313 21.7244 155.487 22.0824 155.837 22.3253C156.186 22.5639 156.631 22.6832 157.173 22.6832ZM166.059 10.9091V24H164.148V10.9091H166.059ZM170.542 10.9091V24H168.63V10.9091H170.542ZM177.344 24.1982C176.377 24.1982 175.544 23.9915 174.845 23.5781C174.15 23.1605 173.613 22.5746 173.234 21.8203C172.859 21.0618 172.672 20.1733 172.672 19.1548C172.672 18.1491 172.859 17.2628 173.234 16.4957C173.613 15.7287 174.142 15.13 174.819 14.6996C175.501 14.2692 176.298 14.054 177.21 14.054C177.764 14.054 178.301 14.1456 178.821 14.3288C179.341 14.5121 179.807 14.7997 180.221 15.1918C180.634 15.5838 180.96 16.093 181.199 16.7195C181.437 17.3416 181.557 18.098 181.557 18.9886V19.6662H173.752V18.2344H179.684C179.684 17.7315 179.582 17.2862 179.377 16.8984C179.172 16.5064 178.885 16.1974 178.514 15.9716C178.148 15.7457 177.717 15.6328 177.223 15.6328C176.686 15.6328 176.217 15.7649 175.817 16.0291C175.42 16.2891 175.113 16.63 174.896 17.0518C174.683 17.4695 174.577 17.9233 174.577 18.4134V19.532C174.577 20.1882 174.692 20.7464 174.922 21.2067C175.156 21.6669 175.482 22.0185 175.9 22.2614C176.317 22.5 176.805 22.6193 177.363 22.6193C177.726 22.6193 178.056 22.5682 178.354 22.4659C178.653 22.3594 178.91 22.2017 179.128 21.9929C179.345 21.7841 179.511 21.5263 179.626 21.2195L181.435 21.5455C181.29 22.0781 181.03 22.5447 180.655 22.9453C180.285 23.3416 179.818 23.6506 179.256 23.8722C178.697 24.0895 178.06 24.1982 177.344 24.1982ZM188.26 14.1818V15.7159H182.897V14.1818H188.26ZM184.336 11.8295H186.247V21.1172C186.247 21.4879 186.302 21.767 186.413 21.9545C186.524 22.1378 186.667 22.2635 186.841 22.3317C187.02 22.3956 187.214 22.4276 187.423 22.4276C187.576 22.4276 187.711 22.4169 187.826 22.3956C187.941 22.3743 188.03 22.3572 188.094 22.3445L188.439 23.9233C188.329 23.9659 188.171 24.0085 187.966 24.0511C187.762 24.098 187.506 24.1236 187.199 24.1278C186.696 24.1364 186.228 24.0469 185.793 23.8594C185.358 23.6719 185.007 23.3821 184.738 22.9901C184.47 22.598 184.336 22.1058 184.336 21.5135V11.8295Z" fill="#818CF8"/>
<line x1="130.75" y1="10" x2="130.75" y2="27" stroke="#818CF8" stroke-width="1.5"/>
<defs>
<linearGradient id="paint0_linear_3172_32144" x1="-8.42746" y1="6.12651" x2="29.7048" y2="5.89965" gradientUnits="userSpaceOnUse">
<stop offset="0.0885417" stop-color="#44BCF0"/>
<stop offset="0.567708" stop-color="#818CF8"/>
<stop offset="1" stop-color="#A099FF"/>
</linearGradient>
<linearGradient id="paint1_linear_3172_32144" x1="9.07611" y1="19.937" x2="14.9593" y2="19.9078" gradientUnits="userSpaceOnUse">
<stop offset="0.0885417" stop-color="#44BCF0"/>
<stop offset="0.567708" stop-color="#818CF8"/>
<stop offset="1" stop-color="#A099FF"/>
</linearGradient>
<linearGradient id="paint2_linear_3172_32144" x1="-3.72401" y1="11.6169" x2="140.391" y2="6.84315" gradientUnits="userSpaceOnUse">
<stop offset="0.0885417" stop-color="#44BCF0"/>
<stop offset="0.567708" stop-color="#818CF8"/>
<stop offset="1" stop-color="#A099FF"/>
</linearGradient>
<clipPath id="clip0_3172_32144">
<rect width="24.5385" height="30" fill="white"/>
</clipPath>
</defs>
</svg>
