<svg width="63" height="63" viewBox="0 0 63 63" fill="none" xmlns="http://www.w3.org/2000/svg">
<path fill-rule="evenodd" clip-rule="evenodd" d="M9.92173 0.000749142L9.97442 0H52.0243C58.0186 0 63 4.69453 63 10.6333V36.8537C62.9737 39.7603 61.7459 42.5217 59.6128 44.5332C57.4847 46.54 54.6296 47.6384 51.6796 47.6078H47.0352V54.4951C47.2542 57.0725 46.154 59.5718 44.1242 61.2001C42.0771 62.8422 39.3398 63.3988 36.7991 62.7121C36.7962 62.7113 36.7933 62.7106 36.7904 62.7098L9.29247 55.5142C9.27155 55.5087 9.25072 55.5029 9.23 55.4967C3.87472 53.893 0.119976 49.1441 0.00263537 43.6432L0.00179246 43.6037L0.00221391 10.1067C-0.0540006 7.45205 0.963818 5.04245 2.65512 3.24203C2.68057 3.21353 2.70685 3.18588 2.73391 3.15911C4.54252 1.27705 7.09588 0.0811298 9.92173 0.000749142ZM4.72075 6.58301C4.05032 7.58925 3.67803 8.78416 3.70758 10.0425L3.70861 10.086L3.70809 43.583C3.79743 47.3818 6.39616 50.7662 10.2634 51.9376L37.7449 59.129L37.7612 59.1333C39.1785 59.518 40.6937 59.2011 41.8053 58.3094C42.9112 57.4222 43.4681 56.0912 43.3381 54.7593C43.3322 54.6994 43.3293 54.6393 43.3293 54.5792V23.8402C43.2354 20.0112 40.6486 16.5914 36.7747 15.3521L4.72075 6.58301ZM47.0352 43.9019V23.8185L47.0347 23.7773C46.912 18.2692 43.1973 13.4957 37.8587 11.808C37.8356 11.8007 37.8124 11.7939 37.7891 11.7875L8.78512 3.85285C9.17704 3.76943 9.58375 3.71926 10.0023 3.70589H52.0243C56.1068 3.70589 59.2941 6.87358 59.2941 10.6333V36.8279C59.275 38.7001 58.4841 40.5039 57.0703 41.837C55.6522 43.1743 53.7248 43.9248 51.7107 43.9021L47.0352 43.9019Z" fill="#87A1FD"/>
<path fill-rule="evenodd" clip-rule="evenodd" d="M32.6385 32.926C31.0528 32.926 29.6452 34.1808 29.6452 35.8765C29.6452 37.5722 31.0528 38.827 32.6385 38.827C34.2242 38.827 35.6318 37.5722 35.6318 35.8765C35.6318 34.1808 34.2242 32.926 32.6385 32.926Z" fill="#87A1FD"/>
<path fill-rule="evenodd" clip-rule="evenodd" d="M43.3279 23.8024C43.3279 22.7791 44.1575 21.9495 45.1809 21.9495H61.1457C62.1691 21.9495 62.9987 22.7791 62.9987 23.8024C62.9987 24.8258 62.1691 25.6553 61.1457 25.6553H45.1809C44.1575 25.6553 43.3279 24.8258 43.3279 23.8024Z" fill="#87A1FD"/>
</svg>
