<svg width="15" height="15" viewBox="0 0 15 15" fill="none" xmlns="http://www.w3.org/2000/svg">
<path d="M9.65306 2.62329H2.67989C2.02558 2.62329 1.49414 3.15473 1.49414 3.80904V13.8142C1.49414 14.4685 2.02558 14.9999 2.67989 14.9999H9.65306C10.3074 14.9999 10.8388 14.4685 10.8388 13.8142V3.80904C10.8357 3.15473 10.3043 2.62329 9.65306 2.62329ZM10.0063 13.8111C10.0063 14.0077 9.84659 14.1674 9.64999 14.1674H2.67682C2.48021 14.1674 2.32048 14.0077 2.32048 13.8111V3.80904C2.32048 3.61244 2.48021 3.4527 2.67682 3.4527H9.64999C9.84659 3.4527 10.0063 3.61244 10.0063 3.80904V13.8111Z" fill="#6366F1"/>
<path d="M12.3191 0H5.3459C4.69159 0 4.16016 0.531436 4.16016 1.18575C4.16016 1.41614 4.34447 1.60045 4.57486 1.60045C4.80525 1.60045 4.98956 1.41614 4.98956 1.18575C4.98956 0.989146 5.1493 0.829408 5.3459 0.829408H12.3191C12.5157 0.829408 12.6754 0.989146 12.6754 1.18575V11.1909C12.6754 11.3875 12.5157 11.5472 12.3191 11.5472C12.0887 11.5472 11.9044 11.7315 11.9044 11.9619C11.9044 12.1923 12.0887 12.3766 12.3191 12.3766C12.9734 12.3766 13.5048 11.8452 13.5048 11.1909V1.18575C13.5048 0.531436 12.9734 0 12.3191 0Z" fill="#6366F1"/>
</svg>
