<svg width="25" height="25" viewBox="0 0 25 25" fill="none" xmlns="http://www.w3.org/2000/svg">
<path fill-rule="evenodd" clip-rule="evenodd" d="M2.61043 15.2689C2.90172 15.2689 3.13786 15.505 3.13786 15.7963C3.13786 16.2173 3.49269 16.7402 4.39101 17.1894C5.2578 17.6228 6.49223 17.906 7.88469 17.906C8.51356 17.907 9.14176 17.8448 9.7582 17.7204C10.0437 17.6628 10.3219 17.8476 10.3795 18.1331C10.4372 18.4186 10.2524 18.6968 9.96688 18.7544C9.28134 18.8928 8.58364 18.962 7.88428 18.9609C6.36376 18.9608 4.96121 18.6538 3.91926 18.1329C2.90873 17.6276 2.08301 16.832 2.08301 15.7963C2.08301 15.505 2.31914 15.2689 2.61043 15.2689Z" fill="#505763"/>
<path fill-rule="evenodd" clip-rule="evenodd" d="M2.61043 12.6318C2.90172 12.6318 3.13786 12.8679 3.13786 13.1592C3.13786 13.5801 3.49269 14.1031 4.39101 14.5522C5.2578 14.9856 6.49223 15.2689 7.88469 15.2689C8.51356 15.2699 9.14176 15.2077 9.7582 15.0833C10.0437 15.0257 10.3219 15.2104 10.3795 15.496C10.4372 15.7815 10.2524 16.0597 9.96688 16.1173C9.28134 16.2557 8.58364 16.3248 7.88428 16.3238C6.36376 16.3237 4.96121 16.0167 3.91926 15.4957C2.90873 14.9905 2.08301 14.1949 2.08301 13.1592C2.08301 12.8679 2.31914 12.6318 2.61043 12.6318Z" fill="#505763"/>
<path fill-rule="evenodd" clip-rule="evenodd" d="M2.61043 9.99465C2.90172 9.99465 3.13786 10.2308 3.13786 10.5221C3.13786 10.943 3.49269 11.466 4.39101 11.9151C5.2578 12.3485 6.49223 12.6318 7.88469 12.6318C8.51356 12.6328 9.14176 12.5706 9.7582 12.4462C10.0437 12.3885 10.3219 12.5733 10.3795 12.8588C10.4372 13.1444 10.2524 13.4226 9.96688 13.4802C9.28134 13.6185 8.58364 13.6877 7.88428 13.6866C6.36376 13.6866 4.96121 13.3796 3.91926 12.8586C2.90873 12.3533 2.08301 11.5577 2.08301 10.5221C2.08301 10.2308 2.31914 9.99465 2.61043 9.99465Z" fill="#505763"/>
<path fill-rule="evenodd" clip-rule="evenodd" d="M13.1493 12.1413C14.1914 11.6203 15.5941 11.3132 17.1147 11.3132C18.6352 11.3132 20.0379 11.6203 21.08 12.1413C22.0905 12.6466 22.9163 13.4421 22.9163 14.4778V19.752C22.9163 20.7877 22.0906 21.5833 21.0801 22.0886C20.038 22.6096 18.6353 22.9166 17.1147 22.9166C15.594 22.9166 14.1913 22.6096 13.1492 22.0886C12.1387 21.5833 11.313 20.7877 11.313 19.752V14.4778C11.313 13.4421 12.1388 12.6466 13.1493 12.1413ZM12.3678 18.9675V19.752C12.3678 20.1729 12.7227 20.6959 13.621 21.1451C14.4878 21.5785 15.7222 21.8617 17.1147 21.8617C18.5071 21.8617 19.7415 21.5785 20.6083 21.1451C21.5067 20.6959 21.8615 20.1729 21.8615 19.752V18.9675C21.6241 19.1502 21.3591 19.3119 21.0801 19.4514C20.038 19.9724 18.6353 20.2795 17.1147 20.2795C15.594 20.2795 14.1913 19.9724 13.1492 19.4514C12.8702 19.3119 12.6052 19.1502 12.3678 18.9675ZM21.8615 17.1149C21.8615 17.5358 21.5067 18.0588 20.6083 18.5079C19.7415 18.9413 18.5071 19.2246 17.1147 19.2246C15.7222 19.2246 14.4878 18.9413 13.621 18.5079C12.7227 18.0588 12.3678 17.5358 12.3678 17.1149V16.3302C12.6052 16.513 12.8702 16.6747 13.1493 16.8142C14.1914 17.3353 15.5941 17.6423 17.1147 17.6423C18.6352 17.6423 20.0379 17.3353 21.08 16.8142C21.3591 16.6747 21.6241 16.513 21.8615 16.3302V17.1149ZM13.6211 15.8708C12.7227 15.4216 12.3678 14.8986 12.3678 14.4778C12.3678 14.0569 12.7227 13.534 13.6211 13.0848C14.4879 12.6514 15.7223 12.3681 17.1147 12.3681C18.507 12.3681 19.7414 12.6514 20.6082 13.0848C21.5066 13.534 21.8615 14.0569 21.8615 14.4778C21.8615 14.8986 21.5066 15.4216 20.6082 15.8708C19.7414 16.3042 18.507 16.5875 17.1147 16.5875C15.7223 16.5875 14.4879 16.3042 13.6211 15.8708Z" fill="#505763"/>
<path fill-rule="evenodd" clip-rule="evenodd" d="M7.88469 2.08325C6.36412 2.08325 4.96143 2.3903 3.91936 2.91133C2.90884 3.41659 2.08301 4.21219 2.08301 5.24781C2.08301 5.25137 2.08302 5.25494 2.08304 5.2585V7.87932L2.08301 7.88494L2.08304 7.89563V19.042C2.08304 19.5512 2.38836 19.9543 2.73757 20.2441C3.09347 20.5395 3.5695 20.7828 4.09051 20.9766C5.13633 21.3657 6.47962 21.598 7.7319 21.598C8.39473 21.598 9.0284 21.4781 9.4887 21.3623C9.72074 21.3039 9.91319 21.2454 10.0488 21.2011C10.1167 21.1788 10.1707 21.1601 10.2085 21.1466C10.2274 21.1398 10.2423 21.1344 10.2529 21.1304L10.2656 21.1257L10.2695 21.1242L10.2717 21.1233C10.5435 21.0188 10.6792 20.7136 10.5746 20.4417C10.4701 20.1699 10.1643 20.0346 9.89246 20.139L9.88552 20.1416L9.85327 20.1533C9.82386 20.1639 9.77906 20.1794 9.72097 20.1984C9.60461 20.2365 9.43589 20.2879 9.23128 20.3394C8.81827 20.4433 8.27673 20.5432 7.7319 20.5432C6.59281 20.5432 5.37538 20.3292 4.45833 19.988C3.9979 19.8167 3.64196 19.6239 3.41124 19.4324C3.17383 19.2354 3.13789 19.1009 3.13789 19.042V9.73754C3.37526 9.92028 3.64021 10.0819 3.91926 10.2215C4.96131 10.7425 6.36401 11.0495 7.88469 11.0495C9.40538 11.0495 10.8081 10.7425 11.8501 10.2215C12.1292 10.0819 12.3942 9.92027 12.6315 9.73751V10.5221C12.6315 10.8134 12.8677 11.0495 13.159 11.0495C13.4502 11.0495 13.6864 10.8134 13.6864 10.5221L13.6864 7.88494L13.6864 5.24962C13.6864 5.24901 13.6864 5.24841 13.6864 5.24781C13.6864 4.21219 12.8606 3.41659 11.85 2.91133C10.808 2.3903 9.40527 2.08325 7.88469 2.08325ZM12.6315 5.24781C12.6315 4.82698 12.2767 4.30401 11.3783 3.85482C10.5115 3.4214 9.27702 3.1381 7.88469 3.1381C6.49237 3.1381 5.25794 3.4214 4.3911 3.85482C3.49569 4.30252 3.14022 4.82352 3.13787 5.24362C3.13788 5.24506 3.13789 5.24651 3.13789 5.24795V5.25442C3.14159 5.6741 3.49741 6.19395 4.3911 6.6408C5.25794 7.07422 6.49237 7.35751 7.88469 7.35751C9.27702 7.35751 10.5115 7.07422 11.3783 6.6408C12.2767 6.19161 12.6315 5.66863 12.6315 5.24781ZM3.13789 7.1003V7.89155C3.14159 8.31132 3.49739 8.83117 4.39101 9.27798C5.2578 9.71137 6.49223 9.99465 7.88469 9.99465C9.27716 9.99465 10.5116 9.71137 11.3784 9.27798C12.2767 8.82882 12.6315 8.30586 12.6315 7.88494V7.10028C12.3941 7.28305 12.1291 7.44474 11.85 7.58429C10.808 8.10532 9.40527 8.41237 7.88469 8.41237C6.36412 8.41237 4.96143 8.10532 3.91936 7.58429C3.64028 7.44475 3.37529 7.28307 3.13789 7.1003Z" fill="#505763"/>
</svg>
