<svg width="24" height="24" viewBox="0 0 24 24" fill="none" xmlns="http://www.w3.org/2000/svg">
<path d="M6.76 4.84078L4.96 3.05078L3.55 4.46078L5.34 6.25078L6.76 4.84078ZM4 10.5008H1V12.5008H4V10.5008ZM13 0.550781H11V3.50078H13V0.550781ZM20.45 4.46078L19.04 3.05078L17.25 4.84078L18.66 6.25078L20.45 4.46078ZM17.24 18.1608L19.03 19.9608L20.44 18.5508L18.64 16.7608L17.24 18.1608ZM20 10.5008V12.5008H23V10.5008H20ZM12 5.50078C8.69 5.50078 6 8.19078 6 11.5008C6 14.8108 8.69 17.5008 12 17.5008C15.31 17.5008 18 14.8108 18 11.5008C18 8.19078 15.31 5.50078 12 5.50078ZM11 22.4508H13V19.5008H11V22.4508ZM3.55 18.5408L4.96 19.9508L6.75 18.1508L5.34 16.7408L3.55 18.5408Z" fill="#555770"/>
</svg>
