<svg width="60" height="60" viewBox="0 0 45 45" fill="none" xmlns="http://www.w3.org/2000/svg">
<path d="M0 5C0 2.23858 2.23858 0 5 0H40C42.7614 0 45 2.23858 45 5V40C45 42.7614 42.7614 45 40 45H5C2.23858 45 0 42.7614 0 40V5Z" fill="#6366F1" fill-opacity="0.1"/>
<path fill-rule="evenodd" clip-rule="evenodd" d="M15.0805 13.3909C14.7227 13.3909 14.4326 13.681 14.4326 14.0388V30.9611C14.4326 31.3189 14.7227 31.6089 15.0805 31.6089H29.3994C29.7572 31.6089 30.0473 31.3189 30.0473 30.9611V19.1338C30.0473 19.1338 30.0473 19.1339 30.0473 19.1338C30.0472 18.9622 29.9791 18.7975 29.8578 18.6761C29.8578 18.6761 29.8579 18.6762 29.8578 18.6761L24.7622 13.5805C24.6408 13.4592 24.4761 13.391 24.3045 13.3909C24.3044 13.3909 24.3045 13.3909 24.3045 13.3909H15.0805ZM13.125 14.0388C13.125 12.9588 14.0005 12.0833 15.0805 12.0833H24.3045C24.8227 12.0834 25.3199 12.2892 25.6865 12.6556L30.7824 17.7515C31.1488 18.1181 31.3548 18.6153 31.3549 19.1335V30.9611C31.3549 32.0411 30.4794 32.9166 29.3994 32.9166H15.0805C14.0005 32.9166 13.125 32.0411 13.125 30.9611V14.0388Z" fill="url(#paint0_linear_3634_3708)"/>
<path fill-rule="evenodd" clip-rule="evenodd" d="M24.1929 12.0833C24.554 12.0833 24.8467 12.376 24.8467 12.7371V17.9439C24.8467 18.3017 25.1368 18.5918 25.4946 18.5918H30.7014C31.0625 18.5918 31.3553 18.8845 31.3553 19.2456C31.3553 19.6067 31.0625 19.8995 30.7014 19.8995H25.4946C24.4146 19.8995 23.5391 19.0239 23.5391 17.9439V12.7371C23.5391 12.376 23.8318 12.0833 24.1929 12.0833Z" fill="url(#paint1_linear_3634_3708)"/>
<path fill-rule="evenodd" clip-rule="evenodd" d="M16.5859 24.2749C16.5859 23.9138 16.8787 23.6211 17.2398 23.6211H27.2393C27.6004 23.6211 27.8932 23.9138 27.8932 24.2749C27.8932 24.636 27.6004 24.9287 27.2393 24.9287H17.2398C16.8787 24.9287 16.5859 24.636 16.5859 24.2749Z" fill="url(#paint2_linear_3634_3708)"/>
<path fill-rule="evenodd" clip-rule="evenodd" d="M16.5859 21.1983C16.5859 20.8372 16.8787 20.5444 17.2398 20.5444H22.6241C22.9852 20.5444 23.278 20.8372 23.278 21.1983C23.278 21.5593 22.9852 21.8521 22.6241 21.8521H17.2398C16.8787 21.8521 16.5859 21.5593 16.5859 21.1983Z" fill="url(#paint3_linear_3634_3708)"/>
<path fill-rule="evenodd" clip-rule="evenodd" d="M16.5859 18.1213C16.5859 17.7603 16.8787 17.4675 17.2398 17.4675H21.0857C21.4468 17.4675 21.7396 17.7603 21.7396 18.1213C21.7396 18.4824 21.4468 18.7752 21.0857 18.7752H17.2398C16.8787 18.7752 16.5859 18.4824 16.5859 18.1213Z" fill="url(#paint4_linear_3634_3708)"/>
<path fill-rule="evenodd" clip-rule="evenodd" d="M16.5859 27.3518C16.5859 26.9907 16.8787 26.698 17.2398 26.698H27.2393C27.6004 26.698 27.8932 26.9907 27.8932 27.3518C27.8932 27.7129 27.6004 28.0056 27.2393 28.0056H17.2398C16.8787 28.0056 16.5859 27.7129 16.5859 27.3518Z" fill="url(#paint5_linear_3634_3708)"/>
<defs>
<linearGradient id="paint0_linear_3634_3708" x1="6.86729" y1="16.3801" x2="35.192" y2="16.1994" gradientUnits="userSpaceOnUse">
<stop offset="0.0885417" stop-color="#44BCF0"/>
<stop offset="0.567708" stop-color="#818CF8"/>
<stop offset="1" stop-color="#A099FF"/>
</linearGradient>
<linearGradient id="paint1_linear_3634_3708" x1="20.856" y1="13.6953" x2="33.0003" y2="13.6068" gradientUnits="userSpaceOnUse">
<stop offset="0.0885417" stop-color="#44BCF0"/>
<stop offset="0.567708" stop-color="#818CF8"/>
<stop offset="1" stop-color="#A099FF"/>
</linearGradient>
<linearGradient id="paint2_linear_3634_3708" x1="12.7046" y1="23.8908" x2="30.2043" y2="22.7873" gradientUnits="userSpaceOnUse">
<stop offset="0.0885417" stop-color="#44BCF0"/>
<stop offset="0.567708" stop-color="#818CF8"/>
<stop offset="1" stop-color="#A099FF"/>
</linearGradient>
<linearGradient id="paint3_linear_3634_3708" x1="14.2888" y1="20.8141" x2="24.6725" y2="20.4266" gradientUnits="userSpaceOnUse">
<stop offset="0.0885417" stop-color="#44BCF0"/>
<stop offset="0.567708" stop-color="#818CF8"/>
<stop offset="1" stop-color="#A099FF"/>
</linearGradient>
<linearGradient id="paint4_linear_3634_3708" x1="14.8169" y1="17.7372" x2="22.818" y2="17.5073" gradientUnits="userSpaceOnUse">
<stop offset="0.0885417" stop-color="#44BCF0"/>
<stop offset="0.567708" stop-color="#818CF8"/>
<stop offset="1" stop-color="#A099FF"/>
</linearGradient>
<linearGradient id="paint5_linear_3634_3708" x1="12.7046" y1="26.9677" x2="30.2043" y2="25.8642" gradientUnits="userSpaceOnUse">
<stop offset="0.0885417" stop-color="#44BCF0"/>
<stop offset="0.567708" stop-color="#818CF8"/>
<stop offset="1" stop-color="#A099FF"/>
</linearGradient>
</defs>
</svg>
