<svg width="64" height="65" viewBox="0 0 64 65" fill="none" xmlns="http://www.w3.org/2000/svg">
<rect width="64" height="65" rx="32" fill="#D55555" fill-opacity="0.1"/>
<g clip-path="url(#clip0_3263_3576)">
<path d="M39.494 27.0759H38.2451V24.5714C38.2451 21.1151 35.4474 18.3101 32.0003 18.3101C28.5533 18.3101 25.7556 21.1151 25.7556 24.5714V27.0759H24.5067C23.1328 27.0759 22.0088 28.2029 22.0088 29.5804V42.103C22.0088 43.4805 23.1328 44.6076 24.5067 44.6076H39.494C40.8679 44.6076 41.9919 43.4805 41.9919 42.103V29.5804C41.9919 28.2029 40.8679 27.0759 39.494 27.0759ZM32.0003 38.3462C30.6265 38.3462 29.5025 37.2192 29.5025 35.8417C29.5025 34.4642 30.6265 33.3372 32.0003 33.3372C33.3742 33.3372 34.4982 34.4642 34.4982 35.8417C34.4982 37.2192 33.3742 38.3462 32.0003 38.3462ZM35.8721 27.0759H28.1286V24.5714C28.1286 22.43 29.8647 20.6894 32.0003 20.6894C34.136 20.6894 35.8721 22.43 35.8721 24.5714V27.0759Z" fill="#D55555"/>
</g>
<defs>
<clipPath id="clip0_3263_3576">
<rect width="29.9747" height="30.0543" fill="white" transform="translate(17.0127 17.0576)"/>
</clipPath>
</defs>
</svg>
