<svg width="33" height="31" viewBox="0 0 31 29" fill="none" xmlns="http://www.w3.org/2000/svg">
<path d="M13.5004 26.75C14.7379 26.75 15.7504 25.7375 15.7504 24.5H11.2504C11.2504 25.7375 12.2629 26.75 13.5004 26.75ZM20.2504 20V14.375C20.2504 10.9213 18.4167 8.03 15.1879 7.265V6.5C15.1879 5.56625 14.4342 4.8125 13.5004 4.8125C12.5667 4.8125 11.8129 5.56625 11.8129 6.5V7.265C8.59543 8.03 6.75043 10.91 6.75043 14.375V20L4.50043 22.25V23.375H22.5004V22.25L20.2504 20ZM18.0004 21.125H9.00043V14.375C9.00043 11.585 10.6992 9.3125 13.5004 9.3125C16.3017 9.3125 18.0004 11.585 18.0004 14.375V21.125ZM8.52793 6.59L6.91918 4.98125C4.21918 7.04 2.44168 10.2125 2.28418 13.8125H4.53418C4.70293 10.8313 6.23293 8.22125 8.52793 6.59V6.59ZM22.4667 13.8125H24.7167C24.5479 10.2125 22.7704 7.04 20.0817 4.98125L18.4842 6.59C20.7567 8.22125 22.2979 10.8313 22.4667 13.8125Z" fill="#6366F1"/>
<circle cx="28" cy="3" r="3" fill="#DC3545"/>
</svg>
