<svg width="27" height="27" viewBox="0 0 27 27" fill="none" xmlns="http://www.w3.org/2000/svg">
<path d="M13.5004 24.75C14.7379 24.75 15.7504 23.7375 15.7504 22.5H11.2504C11.2504 23.7375 12.2629 24.75 13.5004 24.75ZM20.2504 18V12.375C20.2504 8.92125 18.4167 6.03 15.1879 5.265V4.5C15.1879 3.56625 14.4342 2.8125 13.5004 2.8125C12.5667 2.8125 11.8129 3.56625 11.8129 4.5V5.265C8.59543 6.03 6.75043 8.91 6.75043 12.375V18L4.50043 20.25V21.375H22.5004V20.25L20.2504 18ZM18.0004 19.125H9.00043V12.375C9.00043 9.585 10.6992 7.3125 13.5004 7.3125C16.3017 7.3125 18.0004 9.585 18.0004 12.375V19.125ZM8.52793 4.59L6.91918 2.98125C4.21918 5.04 2.44168 8.2125 2.28418 11.8125H4.53418C4.70293 8.83125 6.23293 6.22125 8.52793 4.59V4.59ZM22.4667 11.8125H24.7167C24.5479 8.2125 22.7704 5.04 20.0817 2.98125L18.4842 4.59C20.7567 6.22125 22.2979 8.83125 22.4667 11.8125Z" fill="#6366F1"/>
</svg>
