<svg width="28" height="28" viewBox="0 0 28 28" fill="none" xmlns="http://www.w3.org/2000/svg">
<path d="M22.6686 15.1433C22.7153 14.7699 22.7503 14.3966 22.7503 13.9999C22.7503 13.6033 22.7153 13.2299 22.6686 12.8566L25.1303 10.9316C25.352 10.7566 25.4103 10.4416 25.2703 10.1849L22.937 6.14825C22.832 5.96159 22.6336 5.85659 22.4236 5.85659C22.3536 5.85659 22.2836 5.86825 22.2253 5.89159L19.3203 7.05825C18.7136 6.59159 18.0603 6.20659 17.3486 5.91492L16.9053 2.82325C16.8703 2.54325 16.6253 2.33325 16.3336 2.33325H11.667C11.3753 2.33325 11.1303 2.54325 11.0953 2.82325L10.652 5.91492C9.9403 6.20659 9.28697 6.60325 8.6803 7.05825L5.7753 5.89159C5.7053 5.86825 5.6353 5.85659 5.5653 5.85659C5.36697 5.85659 5.16863 5.96159 5.06363 6.14825L2.7303 10.1849C2.57863 10.4416 2.64863 10.7566 2.8703 10.9316L5.33197 12.8566C5.2853 13.2299 5.2503 13.6149 5.2503 13.9999C5.2503 14.3849 5.2853 14.7699 5.33197 15.1433L2.8703 17.0683C2.64863 17.2433 2.5903 17.5583 2.7303 17.8149L5.06363 21.8516C5.16863 22.0383 5.36697 22.1433 5.57697 22.1433C5.64697 22.1433 5.71697 22.1316 5.7753 22.1083L8.6803 20.9416C9.28697 21.4083 9.9403 21.7933 10.652 22.0849L11.0953 25.1766C11.1303 25.4566 11.3753 25.6666 11.667 25.6666H16.3336C16.6253 25.6666 16.8703 25.4566 16.9053 25.1766L17.3486 22.0849C18.0603 21.7933 18.7136 21.3966 19.3203 20.9416L22.2253 22.1083C22.2953 22.1316 22.3653 22.1433 22.4353 22.1433C22.6336 22.1433 22.832 22.0383 22.937 21.8516L25.2703 17.8149C25.4103 17.5583 25.352 17.2433 25.1303 17.0683L22.6686 15.1433V15.1433ZM20.3586 13.1483C20.4053 13.5099 20.417 13.7549 20.417 13.9999C20.417 14.2449 20.3936 14.5016 20.3586 14.8516L20.1953 16.1699L21.2336 16.9866L22.4936 17.9666L21.677 19.3783L20.1953 18.7833L18.982 18.2933L17.932 19.0866C17.4303 19.4599 16.952 19.7399 16.4736 19.9383L15.237 20.4399L15.0503 21.7583L14.817 23.3333H13.1836L12.962 21.7583L12.7753 20.4399L11.5386 19.9383C11.037 19.7283 10.5703 19.4599 10.1036 19.1099L9.04197 18.2933L7.8053 18.7949L6.32363 19.3899L5.50697 17.9783L6.76697 16.9983L7.8053 16.1816L7.64197 14.8633C7.60697 14.5016 7.58363 14.2333 7.58363 13.9999C7.58363 13.7666 7.60697 13.4983 7.64197 13.1483L7.8053 11.8299L6.76697 11.0133L5.50697 10.0333L6.32363 8.62159L7.8053 9.21659L9.01863 9.70659L10.0686 8.91325C10.5703 8.53992 11.0486 8.25992 11.527 8.06159L12.7636 7.55992L12.9503 6.24159L13.1836 4.66659H14.8053L15.027 6.24159L15.2136 7.55992L16.4503 8.06159C16.952 8.27159 17.4186 8.53992 17.8853 8.88992L18.947 9.70659L20.1836 9.20492L21.6653 8.60992L22.482 10.0216L21.2336 11.0133L20.1953 11.8299L20.3586 13.1483ZM14.0003 9.33325C11.422 9.33325 9.33363 11.4216 9.33363 13.9999C9.33363 16.5783 11.422 18.6666 14.0003 18.6666C16.5786 18.6666 18.667 16.5783 18.667 13.9999C18.667 11.4216 16.5786 9.33325 14.0003 9.33325ZM14.0003 16.3333C12.717 16.3333 11.667 15.2833 11.667 13.9999C11.667 12.7166 12.717 11.6666 14.0003 11.6666C15.2836 11.6666 16.3336 12.7166 16.3336 13.9999C16.3336 15.2833 15.2836 16.3333 14.0003 16.3333Z" fill="#6366F1"/>
</svg>
