<svg width="25" height="25" viewBox="0 0 25 25" fill="none" xmlns="http://www.w3.org/2000/svg">
<path fill-rule="evenodd" clip-rule="evenodd" d="M2.08398 12.5002C2.08398 6.7472 6.74769 2.0835 12.5007 2.0835C18.2536 2.0835 22.9173 6.7472 22.9173 12.5002C22.9173 18.2531 18.2536 22.9168 12.5007 22.9168C6.74769 22.9168 2.08398 18.2531 2.08398 12.5002ZM12.5007 3.47239C7.51475 3.47239 3.47287 7.51426 3.47287 12.5002C3.47287 17.4861 7.51475 21.5279 12.5007 21.5279C17.4866 21.5279 21.5284 17.4861 21.5284 12.5002C21.5284 7.51426 17.4866 3.47239 12.5007 3.47239ZM12.5007 8.3335C12.8842 8.3335 13.1951 8.64441 13.1951 9.02794V12.2126L17.3316 16.3499C17.6027 16.6211 17.6027 17.0608 17.3315 17.332C17.0602 17.6032 16.6205 17.6031 16.3494 17.3319L12.0096 12.9912C11.8794 12.8609 11.8062 12.6843 11.8062 12.5002V9.02794C11.8062 8.64441 12.1171 8.3335 12.5007 8.3335Z" fill="url(#paint0_linear_3595_3552)"/>
<defs>
<linearGradient id="paint0_linear_3595_3552" x1="-5.06739" y1="6.38037" x2="27.302" y2="6.14432" gradientUnits="userSpaceOnUse">
<stop offset="0.0885417" stop-color="#44BCF0"/>
<stop offset="0.567708" stop-color="#818CF8"/>
<stop offset="1" stop-color="#A099FF"/>
</linearGradient>
</defs>
</svg>
