<svg width="74" height="74" viewBox="0 0 74 74" fill="none" xmlns="http://www.w3.org/2000/svg">
<path d="M37 74C57.4345 74 74 57.4345 74 37C74 16.5655 57.4345 0 37 0C16.5655 0 0 16.5655 0 37C0 57.4345 16.5655 74 37 74Z" fill="#FFF4E5"/>
<path fill-rule="evenodd" clip-rule="evenodd" d="M32.7475 21.0418C34.614 17.6527 39.3885 17.6527 41.2525 21.0418L54.866 45.7616C56.6958 49.0858 54.3463 53.1875 50.616 53.1875H23.3864C19.6536 53.1875 17.3042 49.0858 19.134 45.7616L32.7475 21.0418ZM39.4397 45.7142C39.4397 46.3751 39.1827 47.009 38.7251 47.4764C38.2676 47.9436 37.647 48.2062 37 48.2062C36.353 48.2062 35.7324 47.9436 35.2749 47.4764C34.8173 47.009 34.5603 46.3751 34.5603 45.7142C34.5603 45.0534 34.8173 44.4196 35.2749 43.9522C35.7324 43.4849 36.353 43.2224 37 43.2224C37.647 43.2224 38.2676 43.4849 38.7251 43.9522C39.1827 44.4196 39.4397 45.0534 39.4397 45.7142ZM37 25.779C36.353 25.779 35.7324 26.0414 35.2749 26.5088C34.8173 26.9762 34.5603 27.6099 34.5603 28.2708V35.7465C34.5603 36.4075 34.8173 37.0413 35.2749 37.5087C35.7324 37.976 36.353 38.2385 37 38.2385C37.647 38.2385 38.2676 37.976 38.7251 37.5087C39.1827 37.0413 39.4397 36.4075 39.4397 35.7465V28.2708C39.4397 27.6099 39.1827 26.9762 38.7251 26.5088C38.2676 26.0414 37.647 25.779 37 25.779Z" fill="#CB974E"/>
</svg>
